<svg xmlns="http://www.w3.org/2000/svg" width="784" height="528" style=""><path d="M85.238 87.605 37.29 81.686" style="fill:#000;stroke:none" class="SvuSpsZH_0"></path><path d="M2.212 82.566c1.414.15 2.887.327 4.425.483 1.85.189 3.832.354 5.843.388 1.35.021 2.779-.014 4.229-.18 1.106-.127 2.276-.336 3.439-.701.6-.19 1.215-.426 1.823-.73.457-.23.972-.386 1.522-.46.639-.086 1.325-.067 2.06.034.873.121 1.757.345 2.71.626.944.278 1.93.612 2.992.915.649.184 1.376.372 2.14.479.573.079 1.238.124 1.933.028a4.638 4.638 0 0 0 1.443-.439c2.05-1.025 4.142-2.043 6.27-2.964a72.975 72.975 0 0 1 6-2.294c.267-.083.584-.13.975-.151.534-.028 1.08-.003 1.73.028.614.028 1.346.068 2.08.034.53-.026 1.14-.092 1.758-.284.236-.073.478-.167.72-.288a31.883 31.883 0 0 1 3.977-1.64 40.965 40.965 0 0 1 5.629-1.465 39.002 39.002 0 0 1 6.12-.66c1.765-.045 3.54.043 5.284.316 1.458.228 2.892.588 4.25 1.124a16.645 16.645 0 0 1 1.365.61c.5.222 1 .287 1.408.299.52.014 1.005-.05 1.404-.114.625-.1 1.165-.218 1.633-.27.274-.03.47-.032.624-.01a.444.444 0 0 1 .154.047c.188.097.35.225.472.373.147.174.275.407.38.708.135.388.22.825.294 1.35.104.74.163 1.578.337 2.496.105.55.263 1.179.557 1.795a4.641 4.641 0 0 0 1.04 1.43 4.465 4.465 0 0 0 1.127.756c.199.087.405.152.498.182l.014.005c.476.153.952.288 1.407.418 1.244.35 2.488.682 3.737 1.01 1.334.35 2.684.697 4.042 1.03.462.111.95.23 1.443.336l.014.003c.069.014.253.055.434.078a1.54 1.54 0 0 0 .08.009 1.587 1.587 0 0 0 .635-.078c.093-.031.185-.073.276-.126a4.4 4.4 0 0 0 .93-.702c.374-.36.69-.744.952-1.063.398-.484.705-.875 1.056-1.233.216-.22.396-.37.562-.468a.576.576 0 0 1 .214-.087.263.263 0 0 1 .118.02c.145.06.287.142.575.305.634.37 1.25.812 1.883 1.302.92.715 1.81 1.486 2.729 2.293 1.675 1.473 3.423 3.06 5.266 4.502 1.086.848 2.241 1.677 3.485 2.401 1.013.588 2.113 1.124 3.299 1.5.992.317 2.065.523 3.175.527a8.854 8.854 0 0 0 4.225-1.041 3.328 3.328 0 0 0 1.177-1.151 4.825 4.825 0 0 0 .58-1.47l.022-.1a9.851 9.851 0 0 0 .187-1.973c.003-.9-.069-1.78-.165-2.632-.15-1.323-.365-2.624-.584-3.913-.245-1.443-.503-2.872-.7-4.298a25.909 25.909 0 0 1-.237-2.427 8.6 8.6 0 0 1 .044-1.444c.04-.29.094-.505.167-.669.097-.212.248-.412.44-.576.235-.201.546-.373.938-.518.469-.173.99-.29 1.58-.383.83-.13 1.678-.195 2.61-.266.964-.074 2.03-.15 3.086-.31.74-.116 1.544-.282 2.34-.576.649-.24 1.337-.588 1.95-1.107a5.118 5.118 0 0 0 1.243-1.557c.352-.685.571-1.395.723-2.065.197-.878.297-1.76.391-2.55.087-.722.166-1.368.306-1.988.103-.452.23-.848.404-1.186.096-.186.261-.393.505-.613.305-.273.674-.522 1.112-.777.61-.352 1.261-.662 1.977-.995.896-.417 1.91-.869 2.87-1.397.633-.349 1.3-.76 1.924-1.276.522-.433 1.047-.973 1.453-1.643.237-.397.417-.81.547-1.095l.007-.015c.598-1.346 1.024-2.745 1.344-4.142.323-1.406.54-2.82.739-4.2.136-.936.259-1.832.423-2.719.116-.619.245-1.193.424-1.73.094-.284.202-.545.327-.783l.006-.011a9.25 9.25 0 0 1 1.477-2.068c.697-.745 1.516-1.405 2.417-2.006 1.051-.7 2.188-1.307 3.387-1.882 1.884-.904 3.885-1.704 5.903-2.625.512-.235 1.031-.48 1.55-.74.003-.003.006-.004.01-.006.714-.367 1.337-.83 1.885-1.296.748-.637 1.433-1.346 2.05-1.96.524-.521 1.008-.99 1.521-1.394.343-.27.677-.491 1.012-.655.241-.115.546-.193.924-.234.479-.052.994-.04 1.56.01.79.072 1.592.212 2.434.382 1.354.276 2.733.621 4.157.942 1.174.265 2.4.523 3.656.694.895.12 1.842.201 2.814.17.775-.026 1.61-.126 2.438-.39.49-.151.93-.369 1.292-.562.858-.449 1.685-.936 2.484-1.413 1.34-.8 2.654-1.613 3.974-2.39 1.705-1.006 3.417-1.962 5.177-2.792 1.251-.589 2.515-1.11 3.804-1.505 1.031-.316 2.062-.547 3.088-.64.88-.08 1.742-.052 2.551.118a6.17 6.17 0 0 1 1.57.554c.216.113.418.266.587.444.194.204.373.464.564.8.258.456.52 1.029.91 1.649.29.463.649.932 1.095 1.351.456.432.976.78 1.517 1.05 1.43.716 2.814 1.56 4.22 2.463 1.78 1.142 3.659 2.423 5.585 3.54.668.386 1.354.762 2.06 1.113l.016.008c.438.212.877.337 1.241.425.6.143 1.19.23 1.726.303 1.216.162 2.26.256 3.336.46.528.102 1.005.22 1.439.384.32.121.567.252.754.397a.949.949 0 0 1 .26.292c.126.248.197.442.227.604.019.1.003.15.013.12.009-.03.02-.031 0-.013-.057.054-.165.128-.377.217-.288.12-.626.211-1.036.297-.648.134-1.311.22-2.056.321-.688.094-1.452.195-2.213.359a8.448 8.448 0 0 0-1.584.488 4.15 4.15 0 0 0-1.255.821 3.122 3.122 0 0 0-.639.904c-.21.407-.446.814-.701 1.238a40.223 40.223 0 0 1-1.286 1.989c-.29.42-.577.82-.877 1.199a5.292 5.292 0 0 1-.386.445l-.029.03c-.339.357-.559.75-.71 1.063-.229.48-.383.956-.506 1.373-.209.72-.378 1.482-.536 2.116-.132.527-.257.997-.418 1.436-.107.29-.21.511-.323.685l-.008.012a.218.218 0 0 1 .072-.07c.014-.009-.04.022-.175.046-.287.049-.479.04-.992.083a4.809 4.809 0 0 0-1.164.218 2.844 2.844 0 0 0-1.108.68l.008-.008a2.95 2.95 0 0 0-.754 1.251 3.432 3.432 0 0 0-.088 1.486c.078.532.242 1.007.392 1.393.238.605.527 1.188.76 1.68.278.583.513 1.09.682 1.603.12.366.186.68.194.957.007.212-.025.39-.08.527-.064.16-.168.31-.303.432a2.398 2.398 0 0 1-.663.403c-.375.163-.794.285-1.3.416-.46.12-1.072.261-1.636.44a6.634 6.634 0 0 0-1.036.42l-.015.008a4.61 4.61 0 0 0-1.123.87 8.57 8.57 0 0 0-.996 1.275c-.485.745-.878 1.518-1.23 2.234-.217.443-.515 1.03-.731 1.472a34.032 34.032 0 0 0-.854 1.833 9.203 9.203 0 0 0-.481 1.418c-.096.411-.174.936-.095 1.508.061.46.226.902.469 1.289.302.484.693.844 1.018 1.105.436.347.886.623 1.288.857.657.379 1.322.717 1.952 1.036.488.247.976.49 1.458.73.845.425 1.77.723 2.732.854.98.135 1.963.092 2.898-.073 1.111-.195 2.158-.555 3.126-.97 1.2-.517 2.33-1.138 3.399-1.755 1.436-.829 2.716-1.629 4.094-2.357.878-.462 1.74-.865 2.619-1.157.758-.253 1.505-.411 2.23-.434a5.28 5.28 0 0 1 2.62.588l-.042-.023a.267.267 0 0 1-.1-.097c-.008-.014.024.045.04.182.025.2.02.44-.006.76-.06.691-.22 1.485-.308 2.396a7.084 7.084 0 0 0-.012 1.41c.041.375.137.856.398 1.329.214.388.532.737.933.989.34.212.684.33.974.402a5.06 5.06 0 0 0 1.585.108 9.662 9.662 0 0 0 1.833-.344 19.927 19.927 0 0 0 2.371-.852c1.294-.55 2.533-1.181 3.729-1.817.515-.273 1.014-.546 1.505-.801.09-.045.148-.077.174-.09.033-.017.014-.006-.029.009.051-.017.13-.035.305-.062a11.58 11.58 0 0 1 1.079-.095 26.3 26.3 0 0 1 2.01-.015c.487.015.957.04 1.413.09.22.025.383.048.524.082l-.014-.004c.072.018.028.023-.1-.055l.01.007c-.004-.002.052.036.158.127.204.18.434.408.712.662.238.216.543.484.904.72.232.15.569.343.992.447.18.045.381.073.595.07.215-.002.45-.035.69-.118.338-.117.601-.298.794-.465.37-.325.592-.698.732-.982.197-.404.317-.81.4-1.096.08-.272.116-.412.173-.562a.63.63 0 0 1 .034-.074c.127-.236.265-.465.425-.733.422-.696.863-1.39 1.313-2.096.574-.898 1.153-1.792 1.741-2.679.165-.247.313-.47.467-.69a1.54 1.54 0 0 0 .042-.063c-.056.088-.09.118-.074.101.016-.016.076-.076.166-.19.367-.467.548-.986.638-1.423a5.81 5.81 0 0 0 .082-1.554 13.106 13.106 0 0 0-.302-1.927c-.214-.95-.483-1.877-.732-2.748-.249-.873-.485-1.692-.67-2.518a10.26 10.26 0 0 1-.233-1.44 2.981 2.981 0 0 1 .024-.77.576.576 0 0 1 .065-.193 1.56 1.56 0 0 1 .3-.305c.146-.121.3-.235.508-.391.193-.146.43-.325.66-.532.26-.234.578-.56.822-.995l.007-.012c.146-.268.246-.53.319-.743.16-.473.26-.94.343-1.32.14-.655.24-1.165.403-1.659.105-.313.217-.552.343-.732.094-.136.195-.23.287-.286a.65.65 0 0 1 .157-.073c.184-.058.407-.093.71-.118.468-.036.966-.029 1.508-.003.883.044 1.777.137 2.705.241 1.06.12 2.141.26 3.251.367.58.054 1.197.105 1.83.113.342.002.75-.004 1.177-.07l.013-.001c.209-.034.569-.101.937-.29.19-.097.378-.23.544-.402.157-.163.3-.368.4-.612.163-.37.257-.731.323-1.012.135-.592.212-1.167.271-1.7.105-.968.156-1.926.187-2.862.048-1.51.042-3.015.005-4.51a90.281 90.281 0 0 0-.225-4.532 46.401 46.401 0 0 0-.266-2.611 14.69 14.69 0 0 0-.23-1.314 7.54 7.54 0 0 0-.323-1c-.213-.545-.447-1.066-.664-1.55-.344-.766-.67-1.471-.97-2.197a11.016 11.016 0 0 1-.36-.977 1.822 1.822 0 0 1-.073-.317l.002.02c-.001-.018 0-.006-.001.04a.892.892 0 0 1-.048.243c-.015.045-.032.09-.051.134a.636.636 0 0 1 .095-.149l-.007.009c.007-.009-.009.022-.102.055-.096.033-.132.019-.128.02.056.011.158.048.333.155.236.147.481.349.751.605.4.382.78.817 1.158 1.293.43.542.837 1.116 1.23 1.712.422.635.882 1.245 1.286 1.796.51.695.972 1.34 1.36 2.012.288.501.517.986.663 1.467.039.135.059.21.061.226.024.136.038.291.059.52.045.534.075 1.069.114 1.647.059.907.123 1.85.233 2.798.057.485.128 1.007.243 1.537a5.721 5.721 0 0 0 .31 1.01c.064.149.203.456.469.74.112.12.227.212.33.281.103.069.197.117.266.15.142.068.208.091.185.08l.068.03c.447.18.891.293 1.275.378a19.38 19.38 0 0 0 2.1.326c1.108.115 2.212.167 3.307.175a34.15 34.15 0 0 0 3.496-.148c.8-.078 1.626-.191 2.453-.378a9.636 9.636 0 0 0 1.596-.494 4.647 4.647 0 0 0 1.137-.664l.026-.022c.204-.175.496-.481.542-.526l.02-.019a55.563 55.563 0 0 1 2.152-2.083c.802-.726 1.616-1.397 2.472-1.98a11.174 11.174 0 0 1 1.95-1.084c.538-.223 1.06-.37 1.563-.418.406-.04.797-.008 1.146.092.255.072.498.18.721.32.35.22.64.463 1.097.81.364.279.824.617 1.362.882.434.215.943.39 1.503.447.563.06 1.118-.009 1.621-.16a5.517 5.517 0 0 0 1.061-.45c.821-.44 1.547-1.003 2.181-1.602.828-.779 1.545-1.653 2.189-2.42.565-.673 1.074-1.269 1.637-1.786.425-.392.859-.71 1.308-.933a4.03 4.03 0 0 1 1.25-.388c.564-.08 1.17-.05 1.801.067.745.138 1.494.384 2.256.7.43.18.848.369 1.246.575l-.102-.058a.749.749 0 0 1-.175-.148c-.03-.035-.036-.05-.032-.042.016.029.049.107.092.276.06.25.099.54.123.873.03.424.031.859.004 1.296-.016.25-.037.466-.072.661-.013.068-.024.096-.019.084l-.01.025a1.585 1.585 0 0 1-.33.512c-.214.231-.49.449-.842.678-.57.37-1.161.662-1.889 1.055a13.31 13.31 0 0 0-1.416.855c-.35.25-.749.577-1.09 1.013a5.287 5.287 0 0 0-.462.725l-.005.01a9.39 9.39 0 0 0-.693 1.73 16.518 16.518 0 0 0-.525 2.526 22.094 22.094 0 0 0-.185 3.219c.014.892.08 1.8.231 2.71.104.62.25 1.273.486 1.92a6.1 6.1 0 0 0 .456.993c.369.623.847 1.115 1.314 1.505.585.486 1.21.868 1.81 1.186.852.452 1.724.814 2.564 1.135.992.379 1.967.705 2.903 1.043.494.18.944.35 1.37.545.249.116.429.211.57.31.092.068.062.061.015-.01a1.61 1.61 0 0 1-.036-.057c.017.03.067.139.147.326.189.468.303.984.345 1.523.052.672.003 1.377-.11 2.125-.164 1.1-.43 2.147-.695 3.36-.197.91-.391 1.894-.47 2.915-.064.835-.05 1.727.128 2.625.13.663.35 1.32.663 1.938l.01.02c.207.391.468.7.668.92.37.404.758.744 1.112 1.039.63.52 1.275.992 1.891 1.438.842.607 1.625 1.15 2.407 1.742.408.31.778.602 1.112.91.182.17.308.3.4.423.06.083.028.058.002-.031a.89.89 0 0 1-.034-.265 1.057 1.057 0 0 1 .112-.452c-.078.16-.21.333-.403.502a4.126 4.126 0 0 1-.923.586c-.498.241-1.046.437-1.654.63-.64.203-1.328.39-2.048.621-.4.13-.858.288-1.313.504a2.99 2.99 0 0 0-.935.667c-.386.409-.606.89-.72 1.33a4.697 4.697 0 0 0-.12 1.484c.042.613.158 1.185.279 1.69.203.838.464 1.658.691 2.4.202.66.384 1.26.52 1.862.082.379.135.7.144.993.005.186-.013.29-.028.341-.012.034-.053.118-.186.306-.196.266-.472.52-.826.768-.442.31-.948.577-1.519.845-.903.422-1.908.803-2.947 1.292-.55.261-1.148.57-1.719.975-.442.314-.916.722-1.3 1.26-.323.451-.565.984-.676 1.565-.13.673-.07 1.329.063 1.892.145.61.39 1.233.773 1.804a5.28 5.28 0 0 0 1.39 1.402c.637.444 1.325.738 1.961.952.815.272 1.636.447 2.374.599.83.17 1.552.306 2.26.51.486.142.902.299 1.256.5.282.161.504.346.66.541.13.16.231.343.298.534.05.14.058.256.048.334a.923.923 0 0 1-.136.361c-.129.216-.318.439-.589.709-.27.268-.562.524-.9.823-.324.288-.688.614-1.035.974-.366.382-.766.855-1.071 1.435a4.156 4.156 0 0 0-.478 1.614 4.3 4.3 0 0 0 .244 1.77l.006.017c.093.253.231.607.455.955l.007.01c.279.426.62.75.891.987.416.358.868.674 1.208.923.416.304.743.552 1.016.824.197.197.317.363.384.504a.717.717 0 0 1 .072.299c.002.14-.033.323-.13.554-.076.18-.13.267-.166.311l-.01.012a.967.967 0 0 1-.33.25c-.218.109-.496.188-.854.243-.473.072-.983.09-1.551.084-1.12-.01-2.323-.12-3.615-.119-.61.002-1.281.03-1.967.151-.511.093-1.092.25-1.652.554-.359.194-.704.45-1.004.773-.257.275-.482.565-.667.808-.466.618-.89 1.246-1.29 1.86a55.848 55.848 0 0 0-2.074 3.476 45.213 45.213 0 0 0-1.825 3.685c-.376.869-.731 1.776-1.014 2.722-.185.624-.352 1.3-.435 2.014-.054.479-.08 1.042.02 1.633.04.226.099.467.192.71.093.243.22.495.398.736.177.245.433.508.78.705.313.182.624.3.843.378l.01.004c.514.182 1.025.315 1.493.43.912.22 1.82.394 2.71.55 1.43.25 2.861.457 4.29.637 1.057.132 2.123.251 3.198.34a24.904 24.904 0 0 0 1.467.085c.261 0 .49.005.708.02.64.038 1.284.117 1.962.21 1.155.158 2.329.35 3.525.526 1.357.199 2.753.384 4.168.483.95.065 1.935.094 2.935.029a11.178 11.178 0 0 0 2.266-.363 6.877 6.877 0 0 0 1.276-.49l.017-.01a3.444 3.444 0 0 0 1.103-.95c.319-.412.539-.846.704-1.217.253-.575.44-1.158.601-1.655.153-.474.275-.864.427-1.242.058-.144.106-.25.153-.337a3.01 3.01 0 0 1 .344-.467c.254-.295.551-.584.888-.891.44-.402.891-.776 1.39-1.202.178-.153.402-.344.617-.555l.009-.01c.29-.291.533-.598.729-.856.397-.53.75-1.066 1.078-1.582a63.304 63.304 0 0 0 1.638-2.765c.62-1.104 1.219-2.218 1.797-3.34.139-.27.284-.552.424-.839l.005-.01c.396-.824.651-1.676.837-2.484.256-1.115.405-2.26.557-3.273.122-.808.244-1.55.431-2.259.13-.49.285-.936.483-1.333l-.13.213a1.35 1.35 0 0 1-.576.45c-.105.041-.102.037.02-.005l-.1.03a2.41 2.41 0 0 1 .285-.044c.372-.044.756-.067 1.175-.088.862-.04 1.735-.054 2.615-.051.812.003 1.613.02 2.404.065.389.023.74.05 1.076.096.157.023.214.035.248.046l-.013-.004c-.062-.02-.088-.037-.08-.032l.097.06a.772.772 0 0 1 .222.24c.084.141.154.34.193.612.05.344.047.728.005 1.167-.059.618-.185 1.253-.344 1.928-.188.793-.423 1.612-.644 2.473-.11.43-.228.914-.307 1.42-.035.233-.07.51-.07.811-.004.24.046.465.129.662.083.2.194.358.304.48a1.811 1.811 0 0 0 .634.457c.212.095.412.146.573.177.159.03.305.046.399.055l.021.002c.434.037.848.025 1.195.01a31.65 31.65 0 0 0 2.077-.187c1.326-.156 2.665-.35 3.946-.52 1.01-.133 1.992-.259 2.971-.346.554-.047 1.07-.082 1.571-.078.262.003.455.016.618.046.004 0 .008 0 .012.002.04.007.032.012 0-.008l.05.029c.137.077.237.17.298.258.075.106.143.26.183.472.053.283.057.612.021 1.009-.049.531-.16 1.082-.302 1.684-.205.86-.47 1.764-.693 2.735-.12.532-.24 1.13-.286 1.76-.029.426-.031.941.092 1.482.102.447.307.95.688 1.385.247.287.535.488.69.596l.01.007c.342.234.69.43.993.598.635.347 1.277.665 1.88.966.542.271 1.048.522 1.545.79.225.123.414.23.584.343a1.807 1.807 0 0 0 .538.227c.088.021.135.029.14.03l.038.007c.246.04.482.055.64.065a22.654 22.654 0 0 0 2.596-.001c.123-.009.34-.025.57-.07l.063-.014c-.027.006.023 0 .144-.037a1.701 1.701 0 0 0 .548-.283c.049-.038.095-.08.139-.124.172-.175.284-.358.36-.509.073-.149.118-.285.146-.38l.005-.016c.099-.348.12-.673.13-.882v-.011c.016-.43-.01-.84-.037-1.19-.054-.672-.135-1.292-.185-1.87a5.737 5.737 0 0 1-.028-.57v-.031c.144-.566.326-1.116.548-1.645a18.94 18.94 0 0 1 .798-1.63c.294-.547.616-1.136.913-1.734l.008-.016c.207-.43.322-.86.4-1.2.132-.59.21-1.185.28-1.673.076-.523.141-.958.246-1.372.067-.263.133-.441.205-.57a.432.432 0 0 1 .045-.069c.006-.007-.001.003-.026.02-.053.035-.084.037-.1.038a.891.891 0 0 1 .297.058c.25.082.524.217.844.407.156.095.286.176.402.257.112.08.23.179.375.306.23.203.45.413.65.628.116.126.19.213.241.287.003.005-.003-.003-.015-.03l.013.028c.212.435.372.922.501 1.458.18.755.284 1.547.341 2.367a23.52 23.52 0 0 1-.021 3.32 24.936 24.936 0 0 1-.452 3.244 16.25 16.25 0 0 1-.595 2.153c-.12.33-.247.639-.391.923a.42.42 0 0 1-.098.129c-.04.033-.116.082-.28.146-.129.051-.231.085-.428.155a5.587 5.587 0 0 0-.628.262 3.154 3.154 0 0 0-.974.743 3.208 3.208 0 0 0-.636 1.152l-.013.041c-.067.238-.099.468-.116.584 0 .004 0 .009-.002.013-.055.41-.086.81-.109 1.179a27.51 27.51 0 0 0-.05 2.018c.008.427.023.884.075 1.354.025.208.061.489.144.785.057.212.137.382.191.49.059.117.099.187.112.213l.016.03c.425.792.974 1.578 1.69 2.247a6.58 6.58 0 0 0 2 1.294c.79.326 1.626.478 2.434.5.952.025 1.87-.122 2.714-.343 1.08-.284 2.09-.701 3.025-1.143.505-.238.978-.481 1.43-.704a5.85 5.85 0 0 1 .432-.196c.08-.025.033-.01.012-.006a1.103 1.103 0 0 1-.425.012l-.024-.004a1.38 1.38 0 0 1-.69-.34 1.425 1.425 0 0 1-.466-1.085c.002-.047.007-.066.005-.055l-.029.139c-.072.318-.156.631-.25.992a100.442 100.442 0 0 0-.765 3.058 42.348 42.348 0 0 0-.737 3.958 20.796 20.796 0 0 0-.196 2.889c.01.667.06 1.379.216 2.1.12.54.311 1.142.655 1.713a3.85 3.85 0 0 0 1.16 1.232c.757.506 1.573.908 2.41 1.213.978.358 1.974.583 2.925.749 1.305.227 2.555.358 3.726.56.922.157 1.797.355 2.622.638.475.164.947.384 1.414.647.778.437 1.578 1.016 2.503 1.575.406.246.835.487 1.289.705.774.368 1.562.62 2.299.82 1.122.305 2.345.533 3.467.838.599.162 1.138.337 1.626.563.04.019.12.06.244.117.117.053.29.126.5.178.437.111.898.11 1.334-.004.26-.067.492-.169.69-.277.198-.108.37-.228.514-.338.378-.293.693-.62.925-.861.41-.427.684-.725 1.001-.974.21-.165.384-.257.522-.3a.835.835 0 0 1 .355-.03 1.852 1.852 0 0 1 .611.211c.562.28 1.133.553 1.716.81.315.14.488.212.651.31.194.113.384.25.635.43.477.35.953.711 1.447 1.083.61.46 1.219.918 1.83 1.376.597.441 1.25.759 1.92.966.804.25 1.614.344 2.365.367.915.026 1.805-.05 2.623-.136 1.175-.125 2.146-.27 3.195-.331.477-.027.927-.033 1.358-.002.25.021.523.076.86.156.562.135 1.164.312 1.814.474.62.155 1.308.306 2.031.37.56.048 1.188.048 1.833-.087.479-.1.964-.28 1.413-.556.44-.266.912-.571 1.363-.94a5.506 5.506 0 0 0 1.125-1.214 4.99 4.99 0 0 0 .579-1.215c.152-.463.249-.93.327-1.298.084-.403.153-.75.236-1.105.138-.573.35-1.15.602-1.762.49-1.181 1.108-2.394 1.64-3.729.268-.673.524-1.403.689-2.182.136-.647.216-1.368.14-2.117a5.077 5.077 0 0 0-1.121-2.725 29.593 29.593 0 0 0-1.265-1.486c-.679-.76-1.297-1.437-1.866-2.163a9.408 9.408 0 0 1-.834-1.226 3.028 3.028 0 0 1-.31-.753.775.775 0 0 1-.02-.32.383.383 0 0 1 .082-.163 1.81 1.81 0 0 1 .295-.273c.173-.132.377-.232.587-.289.265-.072.576-.094.936-.064.461.038.944.147 1.489.295.613.168 1.274.386 2.005.567.461.113.997.223 1.573.245a4.15 4.15 0 0 0 1.533-.212c.86-.294 1.635-.719 2.318-1.173.838-.558 1.593-1.192 2.277-1.794.986-.87 1.884-1.73 2.795-2.467a12 12 0 0 1 1.667-1.16.592.592 0 0 1 .098-.012c.157-.009.352.007.632.05.471.071 1.035.21 1.7.29.347.042.784.075 1.255.012a2.984 2.984 0 0 0 1.118-.378 30.31 30.31 0 0 0 1.843-1.152c.795-.532 1.421-.983 2.128-1.393.22-.128.44-.247.658-.356a1.48 1.48 90 0 0-1.324-2.647c-.276.138-.55.286-.82.443-.815.473-1.595 1.029-2.29 1.495-.551.37-1.107.723-1.674 1.047l-.026.015c.04-.024.046-.015-.01-.007a2.084 2.084 0 0 1-.504-.016c-.434-.053-.965-.181-1.61-.28a6.007 6.007 0 0 0-1.253-.077c-.365.023-.84.1-1.31.353l-.014.008c-.777.43-1.48.942-2.125 1.464-1.016.822-1.993 1.756-2.891 2.548-.654.575-1.29 1.104-1.96 1.55-.54.36-1.085.65-1.639.838l-.017.006c-.09.032-.233.056-.443.048a4.98 4.98 0 0 1-.978-.161c-.583-.145-1.22-.354-1.933-.548-.598-.164-1.29-.33-2.026-.39a5.656 5.656 0 0 0-1.954.158c-.58.156-1.13.429-1.612.796a4.748 4.748 0 0 0-.788.75 3.34 3.34 0 0 0-.685 1.423 3.694 3.694 0 0 0 .033 1.598c.133.577.367 1.085.6 1.51.332.603.718 1.14 1.096 1.624.645.824 1.347 1.591 1.99 2.311.412.464.794.894 1.14 1.339l.007.008c.128.162.217.296.277.415l.005.01c.116.222.192.483.22.764.037.36.003.762-.091 1.211-.116.545-.305 1.101-.542 1.699-.466 1.165-1.077 2.366-1.626 3.692-.279.674-.556 1.415-.747 2.206a.22.22 0 0 1-.003.012c-.092.399-.174.807-.25 1.17-.083.394-.15.701-.243.987-.067.204-.146.37-.233.5a2.58 2.58 0 0 1-.531.559c-.295.24-.634.464-1.027.702l-.012.007a1.48 1.48 0 0 1-.473.181c-.272.058-.59.068-.967.035-.49-.043-1.001-.15-1.572-.292-.57-.142-1.18-.322-1.844-.482a8.857 8.857 0 0 0-1.328-.228c-.6-.043-1.187-.033-1.745-.001-1.142.066-2.321.235-3.34.343-.783.083-1.514.14-2.223.12-.574-.017-1.1-.087-1.573-.234a3.46 3.46 0 0 1-1.032-.514l-1.817-1.366c-.479-.36-.982-.743-1.486-1.111-.24-.174-.54-.392-.868-.586-.35-.208-.732-.367-.963-.47a35.36 35.36 0 0 1-1.583-.746 4.775 4.775 0 0 0-1.565-.502 3.782 3.782 0 0 0-1.602.138c-.589.18-1.084.49-1.478.8-.523.41-.972.901-1.306 1.25a5.81 5.81 0 0 1-.598.568 1.02 1.02 0 0 1-.126.085c-.027.015-.032.013-.017.01a.288.288 0 0 1 .132-.002c.033.009.042.015.008 0-.034-.016-.109-.055-.228-.11-.705-.327-1.425-.553-2.1-.735-1.175-.317-2.289-.521-3.462-.837-.656-.178-1.255-.376-1.8-.634-.336-.162-.679-.353-1.031-.567-.785-.475-1.61-1.074-2.585-1.622a11.577 11.577 0 0 0-1.902-.867c-1.029-.352-2.07-.583-3.085-.756-1.296-.223-2.544-.355-3.718-.559-.856-.149-1.664-.337-2.416-.612a8.378 8.378 0 0 1-1.786-.897.906.906 0 0 1-.264-.293c-.124-.207-.224-.476-.3-.824-.1-.454-.14-.952-.148-1.499-.008-.8.06-1.621.17-2.472.161-1.218.403-2.44.687-3.679.227-.985.481-1.967.746-2.972.087-.338.19-.723.277-1.108l.008-.037c.005-.026.02-.092.04-.198.018-.095.04-.238.044-.407a1.525 1.525 0 0 0-.502-1.18 1.56 1.56 0 0 0-.776-.381l-.025-.004a1.816 1.816 0 0 0-.745.032c-.164.04-.252.075-.266.08l-.053.018c-.283.105-.545.233-.726.32-.495.243-.955.48-1.398.688-.85.402-1.677.737-2.513.957-.652.17-1.283.263-1.884.247a3.918 3.918 0 0 1-1.389-.279 3.63 3.63 0 0 1-1.102-.716c-.422-.395-.786-.896-1.098-1.475-.052-.102-.087-.162-.098-.184-.011-.024.004-.001.022.069l-.006-.023a2.2 2.2 0 0 1-.054-.327c-.036-.324-.05-.674-.056-1.062-.008-.59.008-1.19.045-1.792a13.6 13.6 0 0 1 .087-.957c.013-.09.024-.152.03-.178.02-.053.038-.076.032-.069-.01.01.01-.014.071-.044.07-.035.158-.071.302-.123.117-.041.332-.115.519-.19a3.92 3.92 0 0 0 1.068-.61c.367-.3.65-.672.85-1.06l.005-.01c.215-.423.39-.85.54-1.264.305-.849.53-1.706.708-2.55.252-1.204.415-2.419.506-3.634.091-1.233.108-2.485.023-3.741a17.507 17.507 0 0 0-.416-2.854 10.075 10.075 0 0 0-.714-2.055 2.783 2.783 0 0 0-.234-.402 5.737 5.737 0 0 0-.5-.608 12.235 12.235 0 0 0-.868-.84 8.274 8.274 0 0 0-.622-.501 10.486 10.486 0 0 0-.589-.379 7.237 7.237 0 0 0-1.453-.683 3.763 3.763 0 0 0-1.395-.195 2.74 2.74 0 0 0-1.93.967 3.381 3.381 0 0 0-.387.558c-.25.451-.391.907-.486 1.278-.15.593-.234 1.18-.307 1.68-.08.549-.138.998-.238 1.441-.058.255-.113.431-.176.565-.27.54-.558 1.067-.866 1.643a21.787 21.787 0 0 0-.92 1.882 14.47 14.47 0 0 0-.69 2.078 2.906 2.906 0 0 0-.088.673c-.007.332.018.647.038.892.058.667.138 1.28.183 1.85.025.323.04.592.03.842-.005.139-.02.206-.019.2l.005-.016s.007-.03.038-.09a1 1 0 0 1 .184-.256 1.336 1.336 0 0 1 .57-.35c.027-.008.134-.035.015-.006l.064-.014a2.108 2.108 0 0 1-.224.023 19.819 19.819 0 0 1-2.19 0 3.79 3.79 0 0 1-.346-.033l.037.007c-.06-.012-.024-.005-.002 0 .036.01.126.033.236.086.057.028.112.06.165.094a10.94 10.94 0 0 0-.804-.473c-.552-.299-1.11-.575-1.632-.836-.621-.31-1.208-.602-1.78-.915a9.241 9.241 0 0 1-.742-.442c-.124-.087-.164-.13-.14-.103.01.012-.019-.022-.038-.105a2.161 2.161 0 0 1-.025-.615c.03-.4.11-.825.22-1.31.194-.851.457-1.747.686-2.71.153-.646.302-1.356.37-2.1.05-.546.062-1.171-.06-1.82a4.127 4.127 0 0 0-.674-1.636 3.846 3.846 0 0 0-1.246-1.119 2.908 2.908 0 0 0-1.006-.367 6.69 6.69 0 0 0-1.112-.092c-.65-.005-1.277.039-1.86.089a71.91 71.91 0 0 0-3.103.36c-1.328.177-2.604.362-3.899.514-.647.075-1.265.14-1.874.17-.31.014-.563.018-.795-.001a1.76 1.76 0 0 1-.12-.015c-.01-.002.014 0 .063.022a1.072 1.072 0 0 1 .375.277 1.293 1.293 0 0 1 .32.881v-.034c0-.094.011-.212.037-.377.054-.35.142-.717.249-1.138.206-.802.447-1.64.656-2.524.172-.73.333-1.514.411-2.332a7.924 7.924 0 0 0-.023-1.867 4.596 4.596 0 0 0-.578-1.7 3.725 3.725 0 0 0-1.133-1.197l-.03-.02c-.04-.025-.144-.093-.251-.153a2.524 2.524 0 0 0-.474-.208l-.013-.004c-.272-.084-.533-.123-.689-.146-.004 0-.008 0-.012-.002-.46-.064-.91-.096-1.319-.12a48.883 48.883 0 0 0-2.566-.07c-.917-.002-1.841.01-2.77.054-.436.022-.904.05-1.38.105l-.013.001c-.151.02-.407.05-.672.12a1.544 1.544 0 0 0-.101.03c.066-.023.007-.011-.156.053a1.611 1.611 0 0 0-.855.767 9.906 9.906 0 0 0-.698 1.902c-.231.879-.373 1.758-.496 2.573-.165 1.098-.291 2.08-.514 3.05-.157.68-.35 1.302-.618 1.86-.126.257-.257.512-.396.784a102.294 102.294 0 0 1-1.745 3.241 60.34 60.34 0 0 1-1.559 2.633c-.31.489-.615.95-.94 1.382-.17.225-.313.4-.457.545-.129.126-.27.248-.462.413-.452.386-.97.817-1.46 1.263a13.7 13.7 0 0 0-1.134 1.145c-.224.26-.478.582-.691.965l-.007.013a6.37 6.37 0 0 0-.301.648c-.202.505-.362 1.017-.499 1.442-.168.52-.31.958-.491 1.367a2.946 2.946 0 0 1-.339.604.59.59 0 0 1-.14.142 3.951 3.951 0 0 1-.713.269 8.24 8.24 0 0 1-1.662.259c-.82.053-1.663.031-2.537-.028-1.298-.09-2.604-.263-3.942-.46-1.164-.17-2.346-.363-3.554-.53a29.597 29.597 0 0 0-2.176-.231c-.3-.02-.599-.024-.866-.025a21.923 21.923 0 0 1-1.255-.075 74.922 74.922 0 0 1-3.07-.327 88.432 88.432 0 0 1-4.149-.616c-.86-.151-1.7-.313-2.523-.511a12.593 12.593 0 0 1-1.198-.342 2.268 2.268 0 0 1-.36-.153l-.027-.016c.098.055.141.11.158.132l-.012-.016c.003.004-.005-.006-.017-.038a.821.821 0 0 1-.039-.151c-.035-.208-.034-.466.003-.8.055-.475.173-.972.33-1.504.238-.794.545-1.586.893-2.389a42.249 42.249 0 0 1 1.704-3.439 52.863 52.863 0 0 1 1.962-3.287c.382-.587.764-1.15 1.168-1.686.175-.23.322-.417.473-.578a.96.96 0 0 1 .248-.188c.19-.103.439-.184.766-.243.437-.078.913-.103 1.45-.105 1.107 0 2.3.107 3.582.12.629.005 1.32-.011 2.027-.119.53-.082 1.131-.225 1.718-.516.477-.235.948-.58 1.325-1.05.29-.357.472-.735.596-1.03a4.348 4.348 0 0 0 .36-1.729 3.661 3.661 0 0 0-.355-1.533c-.259-.551-.626-.993-.97-1.336-.454-.452-.95-.819-1.36-1.118-.41-.3-.722-.518-1.017-.772a1.978 1.978 0 0 1-.35-.365 1.924 1.924 0 0 1-.157-.355 1.354 1.354 0 0 1-.083-.544c.01-.14.055-.3.145-.47.125-.236.316-.482.588-.765.255-.265.539-.52.865-.81.314-.279.677-.597 1.022-.939.341-.34.731-.766 1.045-1.293.254-.425.467-.945.534-1.533a3.712 3.712 0 0 0-.194-1.653 4.772 4.772 0 0 0-.784-1.41 5.242 5.242 0 0 0-1.502-1.259c-.635-.362-1.297-.597-1.9-.772-.852-.246-1.727-.41-2.485-.566-.743-.154-1.405-.298-2.03-.507-.478-.16-.883-.346-1.214-.576a2.334 2.334 0 0 1-.617-.615 2.585 2.585 0 0 1-.355-.845 1.565 1.565 0 0 1-.036-.648c.026-.133.084-.272.178-.403.131-.184.327-.37.605-.568.362-.257.782-.48 1.27-.712.897-.423 1.9-.803 2.937-1.288.635-.298 1.317-.649 1.965-1.103.53-.372 1.076-.844 1.52-1.452l.013-.017c.169-.238.418-.606.578-1.064l.006-.019c.168-.506.19-.993.18-1.368a8.366 8.366 0 0 0-.213-1.552 28.087 28.087 0 0 0-.578-2.087c-.243-.79-.469-1.5-.644-2.226a7.236 7.236 0 0 1-.202-1.188 1.798 1.798 0 0 1 .03-.547c.017-.069.034-.073.008-.046l.008-.01c-.024.027-.027.019.02-.002l.02-.01c.275-.131.584-.242.958-.363.63-.203 1.315-.39 2.032-.617.654-.208 1.36-.453 2.053-.789a7.057 7.057 0 0 0 1.583-1.025 4.603 4.603 0 0 0 1.11-1.427l.015-.033c.122-.267.167-.532.17-.762a2.064 2.064 0 0 0-.083-.614 2.883 2.883 0 0 0-.46-.895l-.008-.01a6.249 6.249 0 0 0-.762-.828 17.975 17.975 0 0 0-1.338-1.1c-.818-.618-1.68-1.217-2.461-1.782a33.685 33.685 0 0 1-1.735-1.317 8.295 8.295 0 0 1-.814-.753 1.716 1.716 0 0 1-.233-.3 4.507 4.507 0 0 1-.392-1.157c-.112-.567-.13-1.178-.08-1.827.062-.809.22-1.63.411-2.512.236-1.086.546-2.324.73-3.552.131-.878.21-1.823.133-2.793a8.086 8.086 0 0 0-.558-2.417l-.009-.023c-.053-.124-.17-.419-.33-.689a2.97 2.97 0 0 0-.797-.825l-.01-.008a6.576 6.576 0 0 0-1.048-.587 21.295 21.295 0 0 0-1.599-.639c-.984-.356-1.943-.677-2.856-1.026-.792-.303-1.538-.616-2.235-.984a7.615 7.615 0 0 1-1.301-.846c-.296-.247-.516-.491-.66-.734a3.169 3.169 0 0 1-.226-.505 7.966 7.966 0 0 1-.346-1.391 15.488 15.488 0 0 1-.191-2.27c-.014-.931.038-1.863.16-2.783.096-.718.23-1.41.427-2.069.132-.439.28-.832.465-1.179.085-.155.144-.249.195-.315a2.32 2.32 0 0 1 .476-.425c.315-.224.673-.426 1.1-.657.613-.33 1.39-.72 2.097-1.179.46-.3.96-.671 1.405-1.153.37-.402.708-.897.926-1.482.089-.233.137-.45.167-.612a8.74 8.74 0 0 0 .115-1.011 13.1 13.1 0 0 0-.006-1.69 8.296 8.296 0 0 0-.203-1.373 4.115 4.115 0 0 0-.382-1.01 2.705 2.705 0 0 0-.295-.428 2.213 2.213 0 0 0-.62-.508 20.183 20.183 0 0 0-1.466-.678c-.892-.37-1.846-.69-2.855-.878-.866-.16-1.801-.222-2.75-.088a6.98 6.98 0 0 0-2.163.672c-.76.379-1.42.879-1.989 1.401-.722.665-1.345 1.402-1.9 2.062-.682.813-1.278 1.535-1.952 2.17a7.338 7.338 0 0 1-1.554 1.15 2.64 2.64 0 0 1-.502.22 1.209 1.209 0 0 1-.47.052 1.469 1.469 0 0 1-.498-.156c-.266-.131-.535-.32-.88-.582-.336-.257-.817-.65-1.317-.963a5.727 5.727 0 0 0-1.484-.661 6.053 6.053 0 0 0-2.24-.192c-.87.083-1.687.329-2.419.633-.9.376-1.722.858-2.475 1.368-1.006.685-1.93 1.45-2.795 2.233a58.236 58.236 0 0 0-2.258 2.184c-.188.183-.314.318-.384.382-.078.06-.2.13-.403.217a6.705 6.705 0 0 1-1.097.334c-.664.15-1.36.247-2.085.318-1.05.102-2.114.14-3.188.134a31.417 31.417 0 0 1-3.018-.159 16.427 16.427 0 0 1-1.771-.272 5.417 5.417 0 0 1-.782-.224c-.102-.046-.14-.06-.111-.046a1.094 1.094 0 0 1 .296.223c.1.108.104.153.077.093l.007.016a2.862 2.862 0 0 1-.137-.479 13.16 13.16 0 0 1-.195-1.243c-.099-.861-.16-1.737-.219-2.648-.036-.546-.07-1.133-.119-1.711-.019-.213-.043-.49-.091-.774-.043-.236-.109-.451-.137-.548a.09.09 0 0 0-.005-.015c-.233-.77-.574-1.47-.935-2.097-.477-.827-1.025-1.588-1.537-2.285-.437-.596-.835-1.122-1.205-1.678a26.835 26.835 0 0 0-1.38-1.919 15.73 15.73 0 0 0-1.434-1.596 7.731 7.731 0 0 0-1.238-.98 4.031 4.031 0 0 0-1.279-.533c-.42-.089-.936-.101-1.458.083l.01-.004c-.516.178-.908.5-1.18.82l-.007.008c-.21.249-.396.536-.537.854a2.04 2.04 0 0 0-.151.672c-.007.143 0 .266.006.343a4.64 4.64 0 0 0 .185.904l.003.01c.135.451.302.876.457 1.253.324.786.683 1.562 1.007 2.283.221.493.425.95.605 1.41.097.253.161.435.2.6.074.319.127.658.18 1.044.107.794.182 1.607.247 2.438.11 1.453.18 2.915.218 4.38.036 1.453.041 2.9-.004 4.337-.03.898-.078 1.775-.171 2.637a12.13 12.13 0 0 1-.213 1.356 2.746 2.746 0 0 1-.193.594c.057-.153.14-.271.223-.358a.921.921 0 0 1 .237-.178c.053-.028.071-.02-.054.002-.19.028-.407.036-.694.034-.5-.006-1.02-.048-1.578-.1-1.043-.1-2.11-.238-3.201-.361a46.633 46.633 0 0 0-2.892-.257 15.191 15.191 0 0 0-1.887.01c-.396.032-.866.09-1.35.24a3.58 3.58 0 0 0-.847.388c-.475.294-.86.688-1.152 1.108a5.79 5.79 0 0 0-.72 1.487c-.23.692-.369 1.408-.49 1.971a9.247 9.247 0 0 1-.251.991c-.044.126-.08.21-.11.268a1.111 1.111 0 0 1-.213.232c-.124.112-.27.224-.46.368-.177.132-.409.303-.63.488-.26.217-.589.52-.86.927a3.476 3.476 0 0 0-.51 1.274 5.9 5.9 0 0 0-.072 1.552c.05.665.169 1.294.296 1.868.208.93.47 1.837.713 2.687.256.898.499 1.735.69 2.58.117.53.204 1.017.237 1.484.021.316.012.56-.028.757a.665.665 0 0 1-.063.184l-.026.028c-.035.039-.127.139-.218.275-.177.252-.346.508-.497.735-.602.908-1.19 1.816-1.771 2.724-.453.71-.909 1.429-1.352 2.16-.156.26-.333.552-.497.858-.07.13-.14.278-.2.437-.107.284-.191.598-.242.772-.087.299-.146.478-.218.625-.047.096-.061.09-.02.055a.518.518 0 0 1 .185-.102.779.779 0 0 1 .245-.045.58.58 0 0 1 .147.016c.043.011.005.005-.092-.057a4.362 4.362 0 0 1-.522-.426c-.214-.195-.457-.437-.753-.698l-.009-.007a4.05 4.05 0 0 0-.599-.445c-.295-.175-.586-.246-.698-.273l-.014-.004a7.386 7.386 0 0 0-.882-.144c-.57-.062-1.123-.09-1.653-.107a29.3 29.3 0 0 0-2.244.018c-.43.022-.893.054-1.367.123l-.011.002c-.194.03-.485.077-.79.178-.167.055-.301.121-.383.163l-.149.077a1.476 1.476 0 0 0-.034.017c-.531.277-1.042.556-1.541.82-1.174.624-2.324 1.209-3.497 1.707-.681.289-1.346.54-2.012.726a6.722 6.722 0 0 1-1.264.244c-.28.021-.49.008-.65-.03-.079-.02-.12-.043-.114-.04a.25.25 0 0 1 .091.092c.001.001-.03-.07-.047-.219a4.205 4.205 0 0 1 .016-.813c.067-.702.23-1.503.31-2.421a6.678 6.678 0 0 0-.005-1.376 3.402 3.402 0 0 0-.435-1.332 2.688 2.688 0 0 0-1.018-.983 8.178 8.178 0 0 0-4.1-.93c-1.081.035-2.118.268-3.069.585-1.091.364-2.112.846-3.063 1.347-1.44.76-2.876 1.65-4.193 2.411-1.042.601-2.052 1.153-3.089 1.6-.831.356-1.652.63-2.47.774a6.396 6.396 0 0 1-1.983.055 5.782 5.782 0 0 1-1.808-.567c-.49-.245-.968-.483-1.448-.725a37.952 37.952 0 0 1-1.805-.957c-.36-.209-.662-.4-.923-.608-.198-.158-.303-.275-.357-.363a.298.298 0 0 1-.045-.117c-.011-.08-.008-.211.044-.433.067-.286.179-.59.33-.953a31.28 31.28 0 0 1 .779-1.668c.272-.554.46-.92.732-1.474.346-.703.672-1.338 1.051-1.92.215-.328.423-.605.644-.834.158-.162.284-.26.386-.315.15-.078.332-.148.566-.223.457-.146.899-.244 1.477-.395.526-.136 1.134-.305 1.735-.566.481-.21 1.004-.5 1.472-.925a4.122 4.122 0 0 0 1.061-1.523c.23-.572.31-1.168.292-1.722-.021-.66-.172-1.269-.341-1.787-.235-.714-.546-1.376-.82-1.95-.264-.557-.49-1.01-.678-1.489a3.507 3.507 0 0 1-.22-.742c-.02-.135-.004-.21-.005-.208-.004.013-.008.012.002.002a.062.062 0 0 0 .008-.009c-.049.05-.065.046-.04.037.082-.027.206-.05.457-.071.237-.02.796-.038 1.249-.116a3.418 3.418 0 0 0 1.217-.437c.352-.214.653-.51.875-.856.284-.437.475-.888.618-1.274.22-.602.377-1.202.511-1.74.186-.745.32-1.36.507-2.005.106-.361.208-.66.332-.921.08-.166.141-.254.182-.3.233-.234.43-.475.592-.677.36-.455.689-.916.996-1.36.484-.702.945-1.415 1.384-2.14.275-.457.553-.936.81-1.437l.025-.05c.029-.06.049-.077.033-.061l.014-.014c.054-.053.16-.13.367-.22a5.541 5.541 0 0 1 1.024-.307c.624-.134 1.27-.221 1.984-.319.705-.095 1.486-.195 2.26-.355a8.746 8.746 0 0 0 1.577-.465c.386-.163.85-.403 1.263-.793.342-.32.639-.75.797-1.266.175-.558.15-1.107.069-1.543a5.276 5.276 0 0 0-.504-1.411 3.886 3.886 0 0 0-1.075-1.273 5.835 5.835 0 0 0-1.522-.829c-.661-.25-1.322-.405-1.93-.522-1.185-.226-2.446-.347-3.5-.488-.52-.07-.985-.141-1.427-.247a3.325 3.325 0 0 1-.64-.209 34.27 34.27 0 0 1-1.886-1.02c-1.85-1.073-3.596-2.267-5.47-3.47-1.434-.92-2.923-1.832-4.497-2.62a3.357 3.357 0 0 1-.81-.556 3.839 3.839 0 0 1-.616-.77c-.259-.41-.506-.939-.842-1.533a6.908 6.908 0 0 0-.994-1.38 5.232 5.232 0 0 0-1.362-1.03 9.141 9.141 0 0 0-2.33-.827c-1.157-.244-2.322-.27-3.428-.17-1.284.116-2.521.4-3.69.758-1.463.45-2.862 1.029-4.198 1.657-1.879.886-3.679 1.894-5.418 2.92-1.355.798-2.675 1.614-3.988 2.4-.796.474-1.564.925-2.344 1.334l-.01.004c-.31.166-.557.28-.785.351l-.015.004c-.492.158-1.04.233-1.64.254-.748.024-1.52-.038-2.322-.146-1.121-.152-2.246-.387-3.4-.647-1.378-.31-2.778-.662-4.22-.956a25.63 25.63 0 0 0-2.758-.429 10.95 10.95 0 0 0-2.145-.005c-.593.066-1.249.205-1.885.509l-.01.004a8.672 8.672 0 0 0-1.55.993c-.662.522-1.252 1.098-1.778 1.621-.677.674-1.247 1.265-1.881 1.805-.445.378-.875.688-1.315.915-.472.237-.954.465-1.444.689-1.93.881-3.948 1.688-5.951 2.648-1.267.608-2.539 1.282-3.749 2.088-1.041.694-2.048 1.497-2.936 2.446-.759.81-1.423 1.724-1.942 2.726-.214.407-.381.82-.515 1.223a16.08 16.08 0 0 0-.525 2.123c-.179.962-.312 1.936-.443 2.838-.198 1.373-.401 2.683-.695 3.962-.29 1.262-.66 2.468-1.16 3.595-.162.354-.262.58-.389.793-.183.302-.456.6-.806.89-.423.351-.914.66-1.461.962-.848.466-1.734.86-2.692 1.306-.714.333-1.474.691-2.213 1.118-.529.308-1.09.673-1.606 1.137-.424.382-.85.862-1.16 1.461a8.032 8.032 0 0 0-.658 1.885c-.179.795-.273 1.592-.357 2.29-.1.832-.183 1.551-.34 2.25-.117.517-.266.97-.467 1.36a2.16 2.16 0 0 1-.524.654c-.28.238-.64.433-1.067.592-.533.197-1.12.325-1.762.425-.919.14-1.86.208-2.862.284-.91.07-1.876.143-2.844.294-.688.11-1.42.263-2.144.53-.615.228-1.262.554-1.835 1.045-.511.435-.931.984-1.214 1.603l-.005.01a5.414 5.414 0 0 0-.4 1.49c-.09.69-.09 1.355-.067 1.953.038.939.144 1.852.262 2.713.206 1.487.476 2.988.714 4.39.219 1.29.42 2.518.561 3.75.09.797.15 1.55.146 2.284a6.883 6.883 0 0 1-.122 1.373l-.011.052a1.911 1.911 0 0 1-.213.576.427.427 0 0 1-.114.13 5.96 5.96 0 0 1-2.757.66 7.7 7.7 0 0 1-2.292-.387c-.923-.293-1.823-.724-2.708-1.239-1.087-.632-2.127-1.375-3.151-2.174-1.755-1.372-3.409-2.875-5.135-4.394-.923-.81-1.87-1.631-2.868-2.407a20.561 20.561 0 0 0-2.215-1.526l-.02-.012c-.207-.116-.556-.323-.93-.476a3.216 3.216 0 0 0-1.514-.221 3.483 3.483 0 0 0-1.436.487 5.82 5.82 0 0 0-1.162.939c-.472.481-.893 1.017-1.232 1.43-.27.328-.486.585-.716.808-.15.144-.243.209-.302.24a1.438 1.438 0 0 1 .742-.152l.064.006a5.453 5.453 0 0 1-.207-.04c-.445-.096-.892-.205-1.357-.317-1.334-.327-2.667-.67-3.992-1.017a211.398 211.398 0 0 1-3.681-.995c-.456-.13-.883-.252-1.303-.386a7.11 7.11 0 0 1-.216-.075 1.5 1.5 0 0 1-.329-.228 1.695 1.695 0 0 1-.372-.525c-.141-.296-.24-.648-.323-1.077-.131-.694-.192-1.488-.314-2.356-.083-.587-.199-1.249-.43-1.91a5.172 5.172 0 0 0-.903-1.634 4.466 4.466 0 0 0-1.383-1.103 3.377 3.377 0 0 0-1.088-.346 5.448 5.448 0 0 0-1.372-.004c-.688.076-1.271.209-1.775.289-.353.056-.62.084-.858.078a.924.924 0 0 1-.275-.04 19.427 19.427 0 0 0-1.497-.665c-1.594-.629-3.245-1.038-4.875-1.294-1.951-.305-3.906-.398-5.818-.35-2.235.058-4.44.31-6.587.71-2.06.385-4.08.907-6.038 1.571a34.843 34.843 0 0 0-4.349 1.796c-.081.04-.173.077-.275.109-.285.088-.62.134-1.02.154-.563.026-1.143-.004-1.802-.035-.62-.029-1.315-.063-2.023-.027a6.894 6.894 0 0 0-1.737.293 75.931 75.931 0 0 0-6.258 2.391c-2.204.954-4.353 2.001-6.42 3.034-.143.072-.319.126-.523.154-.327.045-.696.03-1.118-.028-.56-.078-1.134-.222-1.74-.394-.965-.275-1.947-.608-2.966-.908-1.008-.296-2.053-.567-3.14-.718-.926-.127-1.89-.166-2.859-.035a7.764 7.764 0 0 0-2.453.746c-.443.221-.91.403-1.387.553-.932.293-1.907.472-2.888.585-1.281.146-2.575.18-3.843.16-1.882-.032-3.769-.188-5.588-.373-1.5-.152-2.97-.33-4.412-.482a1.48 1.48 90 0 0-.312 2.943z" style="fill:red;fill-opacity:1;fill-rule:nonzero;stroke:none" class="SvuSpsZH_1"></path><style data-made-with="vivus-instant">.SvuSpsZH_0{stroke-dasharray:49 51;stroke-dashoffset:50;animation:SvuSpsZH_draw_0 7200ms linear 0ms infinite,SvuSpsZH_fade 7200ms linear 0ms infinite;}.SvuSpsZH_1{stroke-dasharray:2138 2140;stroke-dashoffset:2139;animation:SvuSpsZH_draw_1 7200ms linear 0ms infinite,SvuSpsZH_fade 7200ms linear 0ms infinite;}@keyframes SvuSpsZH_draw{100%{stroke-dashoffset:0;}}@keyframes SvuSpsZH_fade{0%{stroke-opacity:1;}94.44444444444444%{stroke-opacity:1;}100%{stroke-opacity:0;}}@keyframes SvuSpsZH_draw_0{11.11111111111111%{stroke-dashoffset: 50}51.388888888888886%{ stroke-dashoffset: 0;}100%{ stroke-dashoffset: 0;}}@keyframes SvuSpsZH_draw_1{12.5%{stroke-dashoffset: 2139}52.77777777777778%{ stroke-dashoffset: 0;}100%{ stroke-dashoffset: 0;}}</style></svg>