<?xml version="1.0" encoding="UTF-8" standalone="no"?>
<!-- Created with Inkscape (http://www.inkscape.org/) -->

<svg
   version="1.1"
   id="svg1"
   width="784"
   height="528"
   viewBox="0 0 784 528"
   xmlns="http://www.w3.org/2000/svg"
   xmlns:svg="http://www.w3.org/2000/svg">
  <defs
     id="defs1" />
  <g
     id="g1">
    <path
       style="fill:#000000;stroke:none"
       d="M 85.237668,87.605381 37.29148,81.686099"
       id="path5" />
    <path
       d="m 2.2118751,82.565762 c 1.4145137,0.149794 2.8867654,0.327582 4.4251343,0.483703 1.85063,0.188222 3.8321326,0.353565 5.8427436,0.387367 1.349983,0.02154 2.778988,-0.0135 4.229296,-0.179194 1.105906,-0.127586 2.275616,-0.336346 3.438542,-0.701848 0.599707,-0.188962 1.215903,-0.426157 1.823516,-0.729903 0.456619,-0.229131 0.971412,-0.38613 1.52157,-0.459518 0.639165,-0.08619 1.325062,-0.06714 2.060093,0.0341 0.873329,0.12079 1.756782,0.34466 2.709613,0.625333 0.944379,0.277985 1.931461,0.61247 2.9924,0.915548 0.649227,0.183977 1.376086,0.371226 2.140873,0.478661 0.572386,0.07902 1.236944,0.124032 1.932468,0.02775 0.466195,-0.06464 0.962776,-0.198184 1.442669,-0.438754 2.050482,-1.025504 4.141713,-2.043447 6.269864,-2.963625 1.61274,-0.698502 3.26797,-1.349342 4.962975,-1.940693 0.343258,-0.119634 0.68991,-0.238548 1.037415,-0.35337 0.267372,-0.08362 0.583964,-0.130523 0.974724,-0.151492 0.534161,-0.02752 1.079974,-0.0024 1.729408,0.02791 0.615049,0.02871 1.347186,0.06868 2.081441,0.03443 0.528974,-0.0258 1.138754,-0.09213 1.75728,-0.284119 0.235996,-0.07352 0.47816,-0.167113 0.719256,-0.287686 1.263016,-0.63052 2.593796,-1.169404 3.978043,-1.640303 1.818098,-0.616575 3.700871,-1.104544 5.62871,-1.464896 2.00807,-0.373821 4.057064,-0.606929 6.119994,-0.660446 1.765425,-0.04456 3.539251,0.04282 5.284423,0.315805 1.457695,0.228915 2.891756,0.588149 4.250563,1.124116 0.434523,0.17002 0.86639,0.366215 1.308751,0.58482 0.01835,0.0091 0.0369,0.01776 0.05561,0.02606 0.500005,0.221775 0.999977,0.286468 1.407719,0.298273 0.52015,0.01395 1.004854,-0.0507 1.403716,-0.113649 0.625134,-0.09941 1.165323,-0.21811 1.632823,-0.269996 0.274544,-0.02955 0.470588,-0.03186 0.624085,-0.0095 0.08145,0.01189 0.123024,0.02999 0.135497,0.03662 0.0064,0.0034 0.0129,0.0068 0.01939,0.01013 0.187513,0.09618 0.349231,0.224952 0.471977,0.372273 0.146081,0.173984 0.274387,0.406944 0.379488,0.708514 0.135047,0.387755 0.219463,0.824614 0.293839,1.350502 0.10391,0.738415 0.163456,1.577353 0.336978,2.495293 0.10523,0.550647 0.263638,1.178899 0.556979,1.795134 0.238871,0.503235 0.578257,1.006122 1.040074,1.430683 0.320522,0.296035 0.684792,0.540858 1.071319,0.729343 0.01854,0.009 0.03726,0.01769 0.05616,0.02595 0.198509,0.08673 0.405028,0.151462 0.497443,0.182138 0.0046,0.0015 0.0092,0.003 0.01384,0.0045 0.476425,0.15296 0.952534,0.288459 1.407408,0.417891 1.244076,0.350888 2.48773,0.682556 3.737263,1.01077 1.334079,0.349161 2.683957,0.696115 4.042227,1.028761 0.46113,0.111917 0.94975,0.231091 1.44263,0.33705 0.005,0.001 0.009,0.002 0.014,0.003 0.0688,0.01408 0.25327,0.05516 0.43359,0.07814 0.0214,0.0027 0.0428,0.005 0.0643,0.0068 -0.0278,-0.0023 -0.0212,-0.0016 0.0164,0.0015 0.0322,0.0027 0.11223,0.0088 0.21302,0.0037 0.10348,-0.0052 0.25246,-0.02284 0.42201,-0.08095 0.0922,-0.0316 0.18495,-0.0733 0.2755,-0.126289 0.39443,-0.214913 0.70372,-0.48473 0.9306,-0.701815 0.37389,-0.361232 0.68993,-0.744367 0.95192,-1.062879 0.39748,-0.484373 0.70446,-0.875632 1.05524,-1.233564 0.21623,-0.219305 0.39583,-0.369568 0.56203,-0.468238 0.11697,-0.0694 0.18981,-0.08477 0.21414,-0.08709 0.0191,-0.0019 0.0584,-0.0019 0.11799,0.02057 0.14501,0.05904 0.28668,0.142284 0.57532,0.304762 0.6343,0.37099 1.24951,0.811978 1.88288,1.3025 0.91965,0.715099 1.80936,1.485507 2.72885,2.292712 1.67466,1.472862 3.42263,3.060675 5.26611,4.502211 1.08599,0.847802 2.24128,1.676684 3.48526,2.400969 1.01234,0.587898 2.11233,1.123342 3.29824,1.500695 0.99278,0.315766 2.06583,0.52205 3.17536,0.526536 0.9831,0.0058 1.97609,-0.152116 2.9214,-0.47673 0.41861,-0.144933 0.84699,-0.321302 1.26813,-0.545457 0.0119,-0.0064 0.0238,-0.01287 0.0356,-0.01956 0.51669,-0.293467 0.90622,-0.71322 1.17679,-1.151203 0.30711,-0.495526 0.47612,-1.016365 0.5804,-1.469798 0.008,-0.03354 0.0151,-0.06687 0.0222,-0.09997 0.14437,-0.68591 0.18276,-1.355547 0.18694,-1.972848 0.003,-0.900461 -0.0693,-1.779594 -0.16487,-2.631996 -0.15085,-1.323286 -0.36578,-2.623573 -0.58452,-3.913395 -0.24478,-1.44233 -0.50255,-2.871979 -0.69965,-4.297247 -0.11236,-0.823079 -0.20414,-1.630337 -0.23704,-2.427657 -0.0199,-0.518016 -0.0147,-0.99589 0.0442,-1.443771 0.0392,-0.28907 0.0937,-0.504921 0.16608,-0.668869 0.0975,-0.211758 0.24834,-0.411884 0.44066,-0.575753 0.23507,-0.201326 0.54552,-0.373322 0.93743,-0.518243 0.46939,-0.172932 0.9912,-0.289426 1.57988,-0.382719 0.83047,-0.129757 1.67815,-0.194939 2.61029,-0.266637 0.96428,-0.07401 2.03008,-0.148763 3.08585,-0.310427 0.74131,-0.115 1.54456,-0.280853 2.33954,-0.575028 0.64959,-0.241073 1.33771,-0.588186 1.95001,-1.107435 0.50309,-0.424351 0.93199,-0.953631 1.24355,-1.556341 0.3526,-0.685225 0.57158,-1.394931 0.7231,-2.065615 0.19763,-0.878227 0.29687,-1.760661 0.39143,-2.549405 0.0868,-0.722504 0.16567,-1.368454 0.30564,-1.988199 0.10281,-0.452377 0.23092,-0.847672 0.40386,-1.186503 0.096,-0.185672 0.26144,-0.392652 0.50554,-0.612412 0.30471,-0.273573 0.67357,-0.522305 1.11196,-0.777057 0.60987,-0.352399 1.26093,-0.661849 1.97687,-0.995218 0.89564,-0.416501 1.90906,-0.868483 2.87078,-1.396779 0.63226,-0.348755 1.29982,-0.759691 1.92307,-1.276089 0.52199,-0.433377 1.047,-0.972712 1.45337,-1.643273 0.23686,-0.396726 0.41705,-0.810757 0.54697,-1.09452 0.002,-0.005 0.005,-0.01006 0.007,-0.01512 0.59814,-1.346049 1.02341,-2.745216 1.34342,-4.142178 0.32298,-1.406394 0.54031,-2.820498 0.73908,-4.199172 0.13633,-0.937092 0.25892,-1.833054 0.42331,-2.719676 0.11615,-0.619037 0.24463,-1.19354 0.42353,-1.730851 0.0943,-0.282934 0.20221,-0.544421 0.32779,-0.782393 0.002,-0.0037 0.004,-0.0074 0.006,-0.01114 0.38298,-0.740919 0.88425,-1.436118 1.47624,-2.067624 0.6975,-0.745257 1.51625,-1.405474 2.41724,-2.006185 1.05118,-0.700241 2.18784,-1.306503 3.38745,-1.882281 1.88338,-0.903224 3.88414,-1.703237 5.90221,-2.625042 0.51225,-0.234513 1.03167,-0.479458 1.5497,-0.740385 0.004,-0.0018 0.007,-0.0036 0.0106,-0.0054 0.71391,-0.366783 1.33759,-0.830127 1.88519,-1.295551 0.74808,-0.637161 1.43307,-1.346215 2.05031,-1.960532 0.52395,-0.521171 1.00776,-0.989319 1.52103,-1.393845 0.34247,-0.269193 0.67624,-0.491021 1.01186,-0.655196 0.2411,-0.114533 0.54565,-0.192366 0.92351,-0.234028 0.47871,-0.05175 0.99407,-0.03968 1.55988,0.0104 0.78939,0.07179 1.59241,0.211637 2.43412,0.381815 1.35398,0.276093 2.73363,0.621225 4.15768,0.94249 1.1735,0.264533 2.4002,0.522854 3.65557,0.693111 0.89508,0.119916 1.84245,0.201653 2.81377,0.170408 0.77554,-0.02624 1.6102,-0.126378 2.43769,-0.389891 0.48999,-0.151203 0.9303,-0.368726 1.29276,-0.56161 0.85782,-0.449424 1.6847,-0.936213 2.48423,-1.412958 1.3388,-0.801312 2.6533,-1.613317 3.97314,-2.390991 1.70568,-1.005552 3.41717,-1.961689 5.17703,-2.791545 1.25145,-0.588741 2.51535,-1.108999 3.80453,-1.505366 1.03126,-0.315825 2.06225,-0.546761 3.08828,-0.639911 0.88006,-0.07952 1.74122,-0.05211 2.55051,0.118595 0.55379,0.116628 1.08452,0.301102 1.57061,0.553418 0.21549,0.113423 0.41742,0.265883 0.58627,0.444397 0.19457,0.204236 0.37355,0.464152 0.56389,0.800591 0.25793,0.455712 0.52053,1.02791 0.91089,1.648085 0.2895,0.462791 0.648,0.9326 1.0943,1.351592 0.45649,0.431258 0.97571,0.780315 1.51722,1.050243 1.43036,0.715247 2.81402,1.559647 4.21971,2.462011 1.77951,1.142503 3.65889,2.423031 5.58508,3.539701 0.66792,0.387095 1.35385,0.762499 2.05939,1.114059 0.005,0.0027 0.011,0.0054 0.0165,0.0081 0.43864,0.211809 0.87734,0.336186 1.2414,0.424669 0.60029,0.143142 1.18902,0.229796 1.72539,0.302466 1.21626,0.162383 2.26007,0.256028 3.33681,0.461211 0.52736,0.101652 1.00415,0.219157 1.43829,0.383031 0.31965,0.121645 0.56727,0.251818 0.75386,0.397143 0.13436,0.104495 0.21697,0.207732 0.26128,0.291651 0.12509,0.248199 0.19573,0.442198 0.22627,0.604031 0.0189,0.100934 0.003,0.149769 0.0125,0.120388 0.009,-0.03062 0.0207,-0.03149 9.8e-4,-0.0129 -0.0572,0.05397 -0.16537,0.127758 -0.37731,0.217096 -0.28839,0.120133 -0.62646,0.210926 -1.03679,0.297213 -0.64747,0.133834 -1.31101,0.219393 -2.0552,0.3206 -0.68808,0.09359 -1.45277,0.195072 -2.21349,0.358832 -0.48583,0.106295 -1.03639,0.249306 -1.58397,0.488112 -0.38617,0.17017 -0.84821,0.421173 -1.25487,0.82143 -0.29199,0.281582 -0.49662,0.606353 -0.63855,0.903216 -0.21046,0.407813 -0.44612,0.814323 -0.7014,1.238172 -0.40673,0.672184 -0.83632,1.336384 -1.28592,1.989221 -0.29052,0.420071 -0.57755,0.820632 -0.87726,1.198882 -0.14693,0.184104 -0.26729,0.326622 -0.38598,0.44503 -0.01,0.0097 -0.0192,0.01944 -0.0286,0.02935 -0.33904,0.357503 -0.55925,0.750832 -0.71039,1.063922 -0.22887,0.479674 -0.38321,0.955786 -0.50559,1.372558 -0.20883,0.719531 -0.37828,1.482087 -0.53651,2.116547 -0.13175,0.52711 -0.25725,0.996535 -0.41803,1.436061 -0.10712,0.289659 -0.20945,0.510775 -0.32302,0.684955 -0.003,0.0039 -0.005,0.0078 -0.008,0.01177 0.017,-0.02664 0.04,-0.05032 0.0724,-0.07001 0.0143,-0.0088 -0.0401,0.02228 -0.17516,0.04563 -0.28705,0.04897 -0.47893,0.04062 -0.99202,0.08289 -0.29517,0.02458 -0.72243,0.06839 -1.16422,0.218761 -0.3616,0.122713 -0.76388,0.33292 -1.10821,0.679683 l 0.008,-0.0084 c -0.33658,0.333557 -0.60804,0.760124 -0.75381,1.251516 -0.16371,0.541231 -0.14874,1.068453 -0.0881,1.485441 0.0784,0.532439 0.2419,1.00758 0.39205,1.393117 0.23836,0.605133 0.52754,1.18801 0.76121,1.679699 0.27755,0.583315 0.51196,1.091178 0.6808,1.603428 0.11988,0.36626 0.18585,0.679833 0.19451,0.957348 0.007,0.21129 -0.0255,0.389577 -0.0808,0.527151 -0.0637,0.159717 -0.16722,0.309404 -0.30225,0.431521 -0.1578,0.143569 -0.37331,0.276969 -0.66333,0.403208 -0.37492,0.162741 -0.79424,0.284673 -1.29963,0.415987 -0.46012,0.119676 -1.07242,0.260978 -1.63594,0.440666 -0.31505,0.101517 -0.67511,0.232048 -1.03647,0.420094 -0.005,0.0025 -0.01,0.005 -0.0144,0.0076 -0.46739,0.249778 -0.8373,0.575406 -1.12313,0.869511 -0.40127,0.415564 -0.72435,0.859216 -0.99654,1.275209 -0.48506,0.744739 -0.87771,1.518174 -1.22948,2.233784 -0.21723,0.44333 -0.5151,1.030157 -0.7315,1.471803 -0.28285,0.575056 -0.58474,1.192411 -0.85406,1.833281 -0.1716,0.412616 -0.35665,0.892713 -0.48067,1.417646 -0.0959,0.411578 -0.174,0.936807 -0.0954,1.508038 0.0617,0.460982 0.2266,0.902606 0.46917,1.288906 0.3025,0.484496 0.69274,0.844256 1.01847,1.105472 0.43547,0.346585 0.88601,0.623198 1.28756,0.85662 0.65746,0.379065 1.32233,0.717345 1.95206,1.036439 0.48814,0.246463 0.9765,0.48949 1.45777,0.730206 0.84573,0.424295 1.77043,0.722593 2.7323,0.853311 0.9799,0.135638 1.96326,0.09269 2.89853,-0.07236 1.11052,-0.195222 2.15743,-0.555294 3.12529,-0.970731 1.20081,-0.516867 2.32985,-1.138026 3.39905,-1.754824 1.43576,-0.828762 2.71623,-1.628627 4.09454,-2.356514 0.87767,-0.462099 1.74028,-0.864768 2.61828,-1.157645 0.75821,-0.252475 1.50548,-0.410816 2.23063,-0.43397 0.58726,-0.01972 1.16847,0.05313 1.71334,0.219174 0.32259,0.09899 0.62742,0.22162 0.90615,0.368934 l -0.042,-0.02309 c -0.0458,-0.02615 -0.0777,-0.05941 -0.10001,-0.0971 -0.008,-0.01324 0.0238,0.04539 0.0411,0.1829 0.0243,0.199268 0.02,0.43941 -0.007,0.758759 -0.0607,0.692092 -0.22065,1.485367 -0.30779,2.396338 -0.0375,0.405432 -0.0672,0.893695 -0.0122,1.409948 0.0414,0.375515 0.13704,0.856945 0.39849,1.329044 0.2135,0.388597 0.53127,0.7379 0.93317,0.989292 0.33996,0.211739 0.68397,0.330093 0.97345,0.402297 0.57712,0.14053 1.12514,0.142711 1.58461,0.108197 0.6595,-0.05186 1.27639,-0.189529 1.83353,-0.344483 0.83281,-0.234023 1.62299,-0.534907 2.37112,-0.85142 1.29392,-0.549914 2.53275,-1.181839 3.72848,-1.817353 0.5151,-0.273086 1.01441,-0.545923 1.5051,-0.801506 0.091,-0.04493 0.1482,-0.07676 0.17429,-0.09004 0.0329,-0.01673 0.0143,-0.0051 -0.0289,0.0092 0.051,-0.0169 0.13017,-0.03454 0.30481,-0.0616 0.33477,-0.04883 0.6878,-0.07508 1.07887,-0.095 0.66056,-0.03167 1.33202,-0.03477 2.00922,-0.01538 0.48842,0.0151 0.95781,0.04023 1.41349,0.0899 0.22088,0.02524 0.38359,0.04849 0.52401,0.08196 l -0.014,-0.0034 c 0.072,0.0179 0.0287,0.02238 -0.10031,-0.05478 l 0.0112,0.0067 c -0.004,-0.0026 0.0514,0.03558 0.15745,0.127255 0.20378,0.179709 0.43371,0.408019 0.71201,0.661304 0.23772,0.216246 0.54272,0.484476 0.90386,0.72009 0.23192,0.14955 0.56913,0.342928 0.99214,0.447224 0.17994,0.04454 0.38122,0.07251 0.59545,0.07019 0.21476,-0.0023 0.44966,-0.03528 0.68916,-0.117772 0.33846,-0.117313 0.60179,-0.298451 0.79431,-0.465649 0.36966,-0.324379 0.5921,-0.697438 0.73182,-0.981359 0.19767,-0.404815 0.31684,-0.809698 0.40067,-1.096647 0.0798,-0.271962 0.11588,-0.411506 0.17253,-0.561627 0.008,-0.02044 0.0181,-0.04398 0.0342,-0.07366 0.12699,-0.236821 0.26444,-0.465407 0.42539,-0.733123 0.42185,-0.695933 0.86221,-1.391149 1.31223,-2.096457 0.57408,-0.897409 1.15353,-1.791502 1.74141,-2.678493 0.16533,-0.247841 0.31275,-0.471231 0.4671,-0.690598 0.0144,-0.02052 0.0283,-0.04141 0.0417,-0.06264 -0.0556,0.08816 -0.089,0.118276 -0.0734,0.101271 0.0152,-0.01658 0.0757,-0.076 0.16511,-0.191302 0.36709,-0.466065 0.54805,-0.984775 0.63821,-1.422379 0.11539,-0.564369 0.11197,-1.102665 0.0822,-1.553258 -0.0482,-0.686985 -0.17115,-1.336546 -0.30231,-1.927431 -0.2135,-0.949959 -0.48285,-1.876952 -0.73145,-2.747755 -0.24924,-0.872999 -0.48538,-1.692247 -0.67039,-2.518198 -0.11342,-0.512311 -0.19866,-0.985016 -0.23283,-1.440627 -0.0226,-0.318118 -0.0154,-0.56595 0.024,-0.768544 0.0246,-0.125022 0.0559,-0.181126 0.0646,-0.194021 0.0452,-0.06775 0.12705,-0.159098 0.30074,-0.304664 0.14559,-0.121696 0.29985,-0.235668 0.50764,-0.391744 0.19312,-0.145065 0.42909,-0.32421 0.66009,-0.531025 0.26042,-0.23424 0.57818,-0.559869 0.8218,-0.995421 0.002,-0.0041 0.005,-0.0082 0.007,-0.01237 0.14656,-0.26799 0.24636,-0.530234 0.3191,-0.742455 0.15963,-0.47361 0.26082,-0.939857 0.34312,-1.320806 0.14036,-0.654228 0.23927,-1.164226 0.40334,-1.658156 0.10475,-0.313467 0.2161,-0.551773 0.3421,-0.732498 0.0944,-0.135822 0.19551,-0.229043 0.28739,-0.28587 0.0549,-0.03438 0.10543,-0.0574 0.15661,-0.07312 0.18493,-0.05746 0.40711,-0.0928 0.70984,-0.117547 0.46904,-0.03607 0.96699,-0.02883 1.50895,-0.0032 0.88287,0.04401 1.77636,0.136688 2.7045,0.241067 1.05936,0.119361 2.14139,0.259301 3.25164,0.366437 0.57883,0.05447 1.19688,0.10521 1.82985,0.112969 0.34122,0.0026 0.74889,-0.0036 1.17644,-0.06888 0.005,-6.9e-4 0.009,-0.0014 0.0136,-0.0021 0.20827,-0.03378 0.56813,-0.100612 0.93614,-0.289856 0.19039,-0.09674 0.3782,-0.229218 0.54466,-0.40193 0.15722,-0.163127 0.29999,-0.36733 0.39993,-0.612007 0.16269,-0.369094 0.25673,-0.730693 0.32263,-1.011846 0.13491,-0.591684 0.21227,-1.167222 0.2714,-1.700313 0.10447,-0.967894 0.1555,-1.925527 0.18686,-2.861758 0.0483,-1.510371 0.0422,-3.014344 0.005,-4.509238 -0.039,-1.508561 -0.11003,-3.020068 -0.22535,-4.532307 -0.0667,-0.85761 -0.14674,-1.732539 -0.26539,-2.611642 -0.0564,-0.40654 -0.1237,-0.856343 -0.22984,-1.313269 -0.0897,-0.384594 -0.22082,-0.733429 -0.32337,-0.999878 -0.21314,-0.545237 -0.44692,-1.066759 -0.66399,-1.551146 -0.34385,-0.765787 -0.67072,-1.470551 -0.96998,-2.196304 -0.14399,-0.352222 -0.26608,-0.667959 -0.35916,-0.97655 -0.0519,-0.177618 -0.0692,-0.262825 -0.0742,-0.317775 l 0.002,0.02063 c -0.001,-0.01853 0.001,-0.0065 -0.001,0.04054 -0.002,0.04706 -0.0108,0.131985 -0.0473,0.241796 -0.0151,0.04547 -0.0324,0.09019 -0.0518,0.133983 0.0191,-0.04305 0.0502,-0.09458 0.0954,-0.148254 l -0.007,0.0084 c 0.007,-0.0085 -0.009,0.02198 -0.1016,0.05474 -0.0965,0.03308 -0.13277,0.01921 -0.1286,0.02009 0.0559,0.01173 0.1585,0.04861 0.33277,0.155651 0.23681,0.146968 0.48139,0.348234 0.75159,0.604705 0.39969,0.381905 0.77911,0.816991 1.15781,1.293219 0.43013,0.542242 0.83686,1.115616 1.2298,1.712212 0.42247,0.6349 0.88217,1.24414 1.28621,1.795126 0.51015,0.695032 0.97185,1.340959 1.35971,2.012624 0.28876,0.501256 0.51704,0.985747 0.6634,1.467286 0.0389,0.134291 0.0584,0.209763 0.0612,0.225427 0.0233,0.135722 0.038,0.291525 0.0585,0.519623 0.0451,0.534279 0.0756,1.069252 0.11389,1.647791 0.0593,0.906518 0.12368,1.850534 0.23297,2.797382 0.0573,0.485647 0.12841,1.007644 0.24357,1.537167 0.0621,0.278005 0.14902,0.632849 0.30239,0.995259 0.002,0.0053 0.004,0.01051 0.007,0.01575 0.0646,0.147908 0.20371,0.454863 0.46926,0.739033 0.11214,0.120765 0.22758,0.212239 0.33083,0.281277 0.1025,0.06854 0.19648,0.117228 0.26547,0.15009 0.14179,0.06755 0.20738,0.09085 0.18512,0.0806 l 0.0673,0.02899 c 0.44766,0.179846 0.89144,0.292823 1.27515,0.378455 0.71633,0.156648 1.42225,0.25346 2.10043,0.325529 1.1079,0.115355 2.21172,0.167229 3.30639,0.175447 1.15887,0.0071 2.32689,-0.03475 3.49663,-0.147845 0.80065,-0.07891 1.62569,-0.191613 2.4525,-0.378049 0.50504,-0.115544 1.05196,-0.26564 1.59637,-0.494622 0.33897,-0.144607 0.75109,-0.347795 1.13696,-0.663706 0.009,-0.0072 0.0176,-0.01458 0.0263,-0.02203 0.20365,-0.174758 0.49599,-0.481491 0.54148,-0.525708 0.007,-0.0063 0.0129,-0.01269 0.0193,-0.01913 0.71862,-0.724602 1.42334,-1.423602 2.15252,-2.08349 0.80197,-0.725811 1.61614,-1.396674 2.47195,-1.978942 0.64246,-0.435722 1.28797,-0.807881 1.95041,-1.084386 0.53758,-0.223584 1.06035,-0.370738 1.56281,-0.418648 0.40667,-0.03919 0.79698,-0.008 1.14668,0.09198 0.25486,0.07239 0.49795,0.180795 0.72077,0.321097 0.34983,0.218992 0.64038,0.461752 1.0969,0.809825 0.36429,0.277913 0.82412,0.616161 1.36186,0.881844 0.43383,0.214794 0.94248,0.389777 1.5031,0.446942 0.56285,0.05984 1.11815,-0.0093 1.62115,-0.160008 0.39802,-0.117407 0.75641,-0.285476 1.06075,-0.450349 0.8211,-0.439164 1.54669,-1.003479 2.18117,-1.60184 0.82745,-0.779178 1.54509,-1.653418 2.18848,-2.420227 0.56529,-0.672735 1.07436,-1.269002 1.63704,-1.78642 0.42547,-0.391169 0.85909,-0.708711 1.30789,-0.932216 0.3935,-0.197194 0.81694,-0.328714 1.24976,-0.388776 0.56435,-0.07952 1.17007,-0.04932 1.80187,0.06744 0.74511,0.13813 1.49398,0.383977 2.25567,0.699241 0.43001,0.180255 0.84789,0.369712 1.2465,0.575723 l -0.10218,-0.05806 c -0.0902,-0.05608 -0.14667,-0.114325 -0.17541,-0.148171 -0.0297,-0.03493 -0.0356,-0.0488 -0.0318,-0.04196 0.016,0.02883 0.049,0.106979 0.0915,0.276536 0.0613,0.25058 0.0994,0.538945 0.12384,0.872274 0.0298,0.424551 0.0306,0.859405 0.004,1.296251 -0.016,0.250415 -0.0374,0.466107 -0.0728,0.661199 -0.0125,0.06809 -0.0233,0.09613 -0.0186,0.08411 l -0.01,0.02511 c -0.058,0.157441 -0.1656,0.332674 -0.33074,0.511892 -0.21283,0.231246 -0.48984,0.448878 -0.84087,0.677674 -0.57089,0.370495 -1.16147,0.662608 -1.88929,1.055065 -0.43588,0.235646 -0.93555,0.512368 -1.41585,0.854788 -0.34951,0.250811 -0.74873,0.577651 -1.08963,1.013596 -0.20343,0.262588 -0.35255,0.523168 -0.46211,0.724618 -0.002,0.0033 -0.004,0.0066 -0.005,0.0099 -0.30864,0.577973 -0.52541,1.171717 -0.69319,1.730279 -0.25173,0.846 -0.41414,1.695593 -0.52524,2.526042 -0.14136,1.070674 -0.20109,2.146743 -0.18523,3.218873 0.0146,0.89192 0.0808,1.80051 0.23127,2.710219 0.10402,0.620047 0.25057,1.272452 0.48555,1.920704 0.11243,0.305483 0.25537,0.649612 0.45669,0.992334 0.3683,0.622938 0.84678,1.115088 1.31399,1.505175 0.58422,0.486017 1.2102,0.867351 1.80905,1.18591 0.8525,0.451164 1.72445,0.813176 2.56497,1.13456 0.99126,0.378769 1.96668,0.704886 2.9029,1.043436 0.49392,0.180031 0.94396,0.349452 1.36908,0.54434 0.24962,0.115967 0.42927,0.211417 0.57055,0.31084 0.0924,0.06727 0.0618,0.06092 0.0152,-0.0099 -0.0125,-0.01906 -0.0246,-0.03841 -0.0363,-0.05802 0.0176,0.02961 0.0674,0.138986 0.14746,0.326798 0.18866,0.467747 0.30241,0.983273 0.34436,1.522938 0.0529,0.671538 0.003,1.376652 -0.10891,2.124697 -0.16466,1.099475 -0.43129,2.147142 -0.69524,3.360502 -0.19751,0.909005 -0.39147,1.893356 -0.47002,2.914 -0.064,0.835344 -0.0501,1.727527 0.12729,2.625544 0.1303,0.663413 0.34968,1.319418 0.6636,1.937611 0.003,0.0068 0.007,0.01352 0.0105,0.02024 0.20623,0.391097 0.46713,0.700259 0.66687,0.920855 0.36956,0.403115 0.75877,0.743438 1.11277,1.037979 0.6287,0.519578 1.27477,0.992712 1.89085,1.437964 0.84155,0.607598 1.62435,1.150849 2.40693,1.742006 0.40823,0.310065 0.77785,0.602018 1.11199,0.910421 0.18133,0.169095 0.30737,0.300704 0.39896,0.422452 0.0607,0.08365 0.0286,0.05861 0.003,-0.0308 -0.0187,-0.06419 -0.036,-0.153827 -0.0341,-0.264532 0.002,-0.112519 0.0242,-0.260556 0.0971,-0.419844 0.005,-0.01084 0.0101,-0.02163 0.0153,-0.03235 -0.0784,0.160682 -0.21088,0.333206 -0.40299,0.502109 -0.24173,0.212542 -0.54789,0.402629 -0.92336,0.585618 -0.49841,0.241687 -1.0462,0.436813 -1.65435,0.629842 -0.63926,0.202891 -1.32777,0.390412 -2.04737,0.621847 -0.40124,0.130447 -0.85809,0.287563 -1.31292,0.503734 -0.3018,0.138489 -0.64084,0.351682 -0.93542,0.666602 -0.38578,0.409215 -0.60564,0.890598 -0.71993,1.329272 -0.14213,0.544212 -0.14537,1.066127 -0.11925,1.484426 0.0408,0.61314 0.15711,1.185134 0.27771,1.689926 0.20297,0.838557 0.46441,1.65836 0.69177,2.400547 0.20181,0.659604 0.384,1.260092 0.51882,1.862278 0.0833,0.378462 0.13554,0.69917 0.14446,0.992925 0.005,0.185874 -0.0122,0.28889 -0.0276,0.340896 -0.0117,0.03427 -0.0533,0.117945 -0.1858,0.30546 -0.19643,0.266152 -0.47247,0.520145 -0.82597,0.76863 -0.44246,0.310143 -0.94794,0.57676 -1.51913,0.844366 -0.90315,0.422274 -1.90799,0.803277 -2.94691,1.292834 -0.54933,0.260575 -1.14833,0.569965 -1.71919,0.974305 -0.44209,0.314582 -0.91607,0.722184 -1.30007,1.26108 -0.3225,0.450327 -0.56522,0.983616 -0.67565,1.564315 -0.13097,0.672479 -0.0707,1.328554 0.0629,1.891883 0.14524,0.609632 0.38979,1.232742 0.77263,1.803622 0.37596,0.56539 0.86115,1.03544 1.38946,1.40204 0.63814,0.44427 1.32604,0.7381 1.96205,0.95203 0.81434,0.27256 1.63604,0.44707 2.37392,0.59903 0.83036,0.17097 1.55137,0.3065 2.26021,0.5108 0.48601,0.14114 0.90197,0.2983 1.2556,0.50008 0.28228,0.16087 0.50391,0.34511 0.66069,0.54051 0.12918,0.16061 0.23025,0.34244 0.29748,0.5342 0.0489,0.14017 0.0573,0.25572 0.048,0.33374 -0.0102,0.0898 -0.0467,0.21049 -0.13649,0.36111 -0.12839,0.2156 -0.31782,0.43843 -0.58871,0.70844 -0.27041,0.26796 -0.56209,0.52393 -0.89964,0.82335 -0.3248,0.28811 -0.68865,0.61364 -1.03578,0.97438 -0.36599,0.38164 -0.76535,0.85446 -1.07092,1.43431 -0.24961,0.47206 -0.43194,1.02089 -0.47806,1.61413 -0.0522,0.63307 0.0589,1.24121 0.24457,1.76975 0.002,0.006 0.004,0.0117 0.006,0.0175 0.0926,0.25338 0.23096,0.60696 0.45452,0.95458 0.002,0.004 0.005,0.007 0.007,0.011 0.27929,0.42591 0.61931,0.74968 0.89164,0.98625 0.41551,0.35791 0.86786,0.67465 1.20735,0.92289 0.41661,0.30432 0.74317,0.55203 1.01675,0.82431 0.19692,0.19662 0.31695,0.36291 0.38311,0.50368 0.0487,0.10279 0.0714,0.206 0.0721,0.2993 0.002,0.14014 -0.0331,0.32274 -0.13018,0.55396 -0.0759,0.18074 -0.12987,0.26739 -0.16575,0.31141 -0.003,0.004 -0.007,0.008 -0.01,0.0121 -0.0659,0.0826 -0.17402,0.17323 -0.32912,0.2499 -0.21891,0.10852 -0.49672,0.18728 -0.85458,0.24277 -0.47319,0.072 -0.98264,0.089 -1.55111,0.0843 -1.11927,-0.0111 -2.32325,-0.12107 -3.61518,-0.11938 -0.60981,0.002 -1.28079,0.0292 -1.96633,0.15137 -0.5119,0.0927 -1.09221,0.24944 -1.65257,0.55344 -0.35877,0.19421 -0.70427,0.45054 -1.00369,0.77294 -0.25743,0.27529 -0.48169,0.56472 -0.66684,0.8079 -0.46619,0.61852 -0.89014,1.24595 -1.29052,1.86106 -0.73663,1.13644 -1.42607,2.29659 -2.07418,3.47556 -0.6539,1.19274 -1.27324,2.41822 -1.82429,3.6842 -0.37677,0.86938 -0.73134,1.77642 -1.01449,2.72261 -0.18491,0.62385 -0.35169,1.29995 -0.43469,2.0135 -0.0537,0.47899 -0.0801,1.04191 0.02,1.63307 0.0389,0.22634 0.0986,0.46688 0.19189,0.71085 0.0925,0.24207 0.22059,0.49401 0.39819,0.73534 0.17639,0.24481 0.43277,0.50831 0.78009,0.70546 0.31254,0.18152 0.62415,0.29874 0.84301,0.37792 0.003,0.001 0.007,0.002 0.0103,0.004 0.51289,0.1813 1.0239,0.31514 1.49191,0.42943 0.9125,0.21974 1.82059,0.39388 2.70956,0.55031 1.431,0.24963 2.86233,0.4572 4.29055,0.63705 1.0572,0.13185 2.12365,0.25122 3.1982,0.34038 0.45694,0.0366 0.94442,0.0729 1.44219,0.0839 0.008,1.8e-4 0.0163,3e-4 0.0245,3.4e-4 0.26153,0.001 0.48984,0.005 0.70794,0.0195 0.6411,0.0392 1.28445,0.1181 1.96246,0.21014 1.15508,0.15911 2.32869,0.35102 3.52506,0.52635 1.35737,0.1991 2.75264,0.38478 4.16833,0.48329 0.94988,0.0647 1.93484,0.0936 2.93416,0.0289 0.72686,-0.0485 1.49655,-0.14775 2.26611,-0.36247 0.41754,-0.11741 0.85102,-0.27319 1.27637,-0.49091 0.006,-0.003 0.0111,-0.006 0.0166,-0.009 0.48709,-0.25716 0.84646,-0.6185 1.10323,-0.94999 0.31871,-0.41246 0.53899,-0.84618 0.70415,-1.21793 0.2533,-0.57492 0.44052,-1.15709 0.60121,-1.65461 0.15327,-0.47397 0.27454,-0.86359 0.42647,-1.24224 0.0584,-0.14348 0.10618,-0.2502 0.15297,-0.33703 0.0741,-0.13175 0.1828,-0.27885 0.34429,-0.46717 0.25456,-0.29443 0.55146,-0.58339 0.88786,-0.8908 0.44005,-0.4016 0.89133,-0.77575 1.39014,-1.20151 0.17802,-0.15326 0.40228,-0.34442 0.61667,-0.55545 0.003,-0.003 0.006,-0.006 0.009,-0.009 0.29132,-0.29172 0.53304,-0.59887 0.72898,-0.85719 0.39748,-0.52903 0.75082,-1.06597 1.07822,-1.58157 0.579,-0.91604 1.11893,-1.8437 1.63793,-2.76518 0.62038,-1.10426 1.2192,-2.21749 1.79769,-3.33998 0.1382,-0.26962 0.28339,-0.55195 0.42389,-0.83836 0.002,-0.004 0.003,-0.007 0.005,-0.0106 0.39606,-0.82393 0.65119,-1.67569 0.8372,-2.48411 0.25568,-1.11524 0.40441,-2.25922 0.55683,-3.27312 0.12181,-0.80782 0.24389,-1.54917 0.43065,-2.25824 0.12995,-0.49115 0.28492,-0.93654 0.48344,-1.33387 l -0.13002,0.21313 c -0.10797,0.14737 -0.22978,0.25167 -0.33615,0.32302 -0.10222,0.0686 -0.1911,0.10733 -0.24021,0.12671 -0.10529,0.0416 -0.10179,0.038 0.0208,-0.004 l -0.10093,0.0303 c 0.0496,-0.013 0.11794,-0.0241 0.28506,-0.0451 0.37155,-0.0432 0.75604,-0.0666 1.17489,-0.0875 0.86244,-0.0405 1.73529,-0.0538 2.61543,-0.0515 0.812,0.003 1.61241,0.0199 2.40402,0.065 0.38825,0.0234 0.73979,0.0495 1.07582,0.0962 0.15733,0.0235 0.21404,0.0356 0.24803,0.046 l -0.0129,-0.004 c -0.0627,-0.0199 -0.0886,-0.0365 -0.081,-0.0322 0.007,0.004 0.04,0.0243 0.0979,0.0609 0.088,0.0611 0.16539,0.14393 0.22161,0.23896 0.0846,0.14192 0.15398,0.34081 0.19356,0.61303 0.0495,0.34348 0.0462,0.72767 0.005,1.16614 -0.0591,0.61817 -0.18532,1.25334 -0.34476,1.92853 -0.18747,0.79271 -0.42259,1.61194 -0.64366,2.4729 -0.10905,0.4302 -0.22778,0.91344 -0.3068,1.41918 -0.0355,0.23362 -0.0694,0.51093 -0.0708,0.81217 -0.003,0.24053 0.0469,0.46477 0.12949,0.66194 0.0836,0.19957 0.19412,0.35734 0.30427,0.48041 0.1087,0.12146 0.22299,0.21523 0.32746,0.28667 0.10241,0.07 0.20609,0.12591 0.30606,0.16992 0.21258,0.0943 0.41243,0.14572 0.57339,0.17674 0.15862,0.0306 0.3052,0.0458 0.39888,0.0551 0.007,7e-4 0.0141,0.001 0.0211,0.002 0.43377,0.0369 0.84852,0.0247 1.19492,0.009 0.71824,-0.0355 1.41615,-0.10982 2.07726,-0.18619 1.32605,-0.15604 2.66524,-0.34967 3.94562,-0.51965 1.00988,-0.13376 1.99196,-0.25939 2.97132,-0.34616 0.55363,-0.0476 1.06987,-0.0817 1.5713,-0.0778 0.26171,0.003 0.45485,0.0155 0.61744,0.0452 0.004,7.3e-4 0.008,0.001 0.012,0.002 0.0394,0.007 0.0323,0.0122 -5.5e-4,-0.008 l 0.05,0.0294 c 0.13783,0.0773 0.23724,0.17025 0.29882,0.25785 0.0753,0.10598 0.14289,0.25967 0.18259,0.47229 0.0529,0.28291 0.0571,0.61222 0.0217,1.00844 -0.0491,0.53178 -0.16036,1.08283 -0.30272,1.68398 -0.20465,0.86122 -0.47028,1.76489 -0.69278,2.73566 -0.12035,0.53217 -0.24,1.12943 -0.28564,1.75979 -0.0291,0.4255 -0.0317,0.9413 0.0918,1.48196 0.10203,0.44732 0.30706,0.94929 0.68747,1.38515 0.24757,0.28713 0.53506,0.48824 0.69022,0.59622 0.003,0.002 0.007,0.005 0.0104,0.007 0.34224,0.23386 0.68994,0.43029 0.99287,0.59724 0.63484,0.34701 1.27714,0.66522 1.87964,0.96659 0.54213,0.2713 1.04852,0.5218 1.54534,0.79048 0.22482,0.12243 0.41422,0.2301 0.58421,0.34233 0.0529,0.0349 0.10795,0.0664 0.16486,0.0942 0.15364,0.0752 0.28985,0.1132 0.37315,0.13323 0.0874,0.021 0.13484,0.0281 0.14073,0.0292 0.0124,0.002 0.0248,0.005 0.0372,0.007 0.24563,0.0403 0.48146,0.0553 0.6395,0.0658 0.47982,0.0288 0.94282,0.0366 1.38979,0.0361 0.3811,-0.002 0.78358,-0.008 1.19532,-0.0367 0.004,-2.7e-4 0.008,-5.4e-4 0.0115,-8.4e-4 0.12319,-0.009 0.34055,-0.025 0.56917,-0.0696 0.0214,-0.004 0.0426,-0.009 0.0638,-0.0139 -0.0269,0.006 0.0231,-8.3e-4 0.14417,-0.0373 0.059,-0.0178 0.14097,-0.0457 0.2338,-0.0894 0.0943,-0.0444 0.20292,-0.10638 0.31355,-0.19352 0.0489,-0.0385 0.0954,-0.0802 0.13909,-0.12454 0.17179,-0.17457 0.28463,-0.35734 0.35939,-0.50855 0.0738,-0.14918 0.11905,-0.28544 0.1469,-0.37928 0.002,-0.005 0.003,-0.0109 0.005,-0.0164 0.0989,-0.34801 0.11979,-0.67305 0.12917,-0.88273 1.6e-4,-0.004 3.1e-4,-0.007 4.5e-4,-0.0108 0.0161,-0.42928 -0.0101,-0.83986 -0.0371,-1.18934 -0.0534,-0.67267 -0.13445,-1.29301 -0.18479,-1.86971 -0.0195,-0.2367 -0.0311,-0.41157 -0.028,-0.57028 3.1e-4,-0.0106 8.9e-4,-0.0231 0.001,-0.032 0.1429,-0.5653 0.32507,-1.11584 0.54761,-1.64468 0.22453,-0.53675 0.49592,-1.06624 0.79778,-1.62922 0.29364,-0.5476 0.61591,-1.13631 0.91311,-1.73444 0.003,-0.006 0.005,-0.0111 0.008,-0.0167 0.20697,-0.43001 0.32145,-0.85876 0.39976,-1.20052 0.13231,-0.58964 0.20996,-1.18452 0.28059,-1.67202 0.0758,-0.52335 0.14038,-0.95836 0.24491,-1.37183 0.0678,-0.26332 0.13333,-0.44158 0.20525,-0.57109 0.0211,-0.0379 0.0378,-0.0596 0.045,-0.068 0.006,-0.007 -8.7e-4,0.003 -0.0263,0.0196 -0.0526,0.0351 -0.0838,0.037 -0.0999,0.038 0.0338,-0.002 0.12083,0.002 0.29693,0.0581 0.25088,0.0817 0.52461,0.21761 0.84457,0.40761 0.15584,0.0945 0.28555,0.17523 0.40208,0.25625 0.11143,0.081 0.22906,0.179 0.37494,0.3064 0.23072,0.20328 0.44964,0.41282 0.65026,0.62811 0.11568,0.12543 0.18899,0.21244 0.24107,0.28713 0.003,0.005 -0.003,-0.003 -0.0155,-0.0296 l 0.0131,0.0276 c 0.2121,0.43426 0.37174,0.92147 0.50108,1.45798 0.18011,0.75437 0.28428,1.54647 0.34132,2.36642 0.0745,1.09507 0.0604,2.20561 -0.0216,3.31962 -0.0821,1.09637 -0.2291,2.18178 -0.45149,3.24447 -0.15799,0.74891 -0.34867,1.46873 -0.59498,2.15271 -0.12007,0.33124 -0.24786,0.63929 -0.39173,0.92363 -0.0355,0.0674 -0.073,0.10812 -0.0979,0.12848 -0.0401,0.0331 -0.11629,0.0821 -0.27997,0.14665 -0.12848,0.0512 -0.23084,0.0843 -0.42826,0.15512 -0.17187,0.0616 -0.39573,0.14544 -0.6274,0.26167 -0.32311,0.1614 -0.67495,0.39853 -0.97435,0.7426 -0.31822,0.362 -0.51678,0.77502 -0.63612,1.15242 -0.004,0.0137 -0.008,0.0275 -0.0124,0.0413 -0.0677,0.23801 -0.099,0.46733 -0.1158,0.58318 -6.4e-4,0.004 -0.001,0.009 -0.002,0.0133 -0.0557,0.40984 -0.0861,0.81078 -0.10938,1.17918 -0.0405,0.67283 -0.0585,1.34474 -0.0496,2.01828 0.007,0.42632 0.0228,0.8841 0.0748,1.35374 0.0244,0.20795 0.0607,0.48865 0.14351,0.78543 0.0573,0.21117 0.13676,0.38126 0.19132,0.48976 0.0585,0.11632 0.0986,0.18642 0.11215,0.21301 0.005,0.01 0.0103,0.0199 0.0156,0.0298 0.42544,0.79144 0.97375,1.57793 1.68994,2.24738 0.57252,0.53671 1.24839,0.98583 1.99968,1.29323 0.79079,0.32627 1.62623,0.47827 2.4347,0.49949 0.9521,0.0258 1.87049,-0.12165 2.71352,-0.34249 1.08057,-0.28399 2.09083,-0.70108 3.02498,-1.1426 0.50492,-0.23767 0.97798,-0.48153 1.43061,-0.70362 0.18966,-0.0915 0.31475,-0.15132 0.43179,-0.19603 0.0791,-0.0259 0.0326,-0.0113 0.0119,-0.006 -0.0283,0.007 -0.0814,0.018 -0.15215,0.0235 -0.0724,0.006 -0.16565,0.006 -0.27257,-0.0119 -0.008,-0.001 -0.0164,-0.003 -0.0246,-0.004 -0.1111,-0.02 -0.22293,-0.0542 -0.33222,-0.10445 -0.10857,-0.0499 -0.23397,-0.1246 -0.35655,-0.23593 -0.12391,-0.11254 -0.25661,-0.27368 -0.35021,-0.4908 -0.0807,-0.1872 -0.12068,-0.39 -0.11679,-0.59433 0.002,-0.0468 0.007,-0.0652 0.005,-0.0541 -0.002,0.0121 -0.0127,0.0582 -0.0288,0.13836 -0.0719,0.31792 -0.15599,0.63126 -0.2495,0.99198 -0.26314,1.00122 -0.52864,2.02338 -0.7661,3.0578 -0.29676,1.29228 -0.55988,2.61297 -0.73665,3.95828 -0.12104,0.9333 -0.20559,1.90151 -0.19545,2.88901 0.009,0.66685 0.0591,1.37898 0.21602,2.09927 0.11951,0.54137 0.31092,1.14287 0.6542,1.71371 0.27297,0.45454 0.65512,0.8972 1.16038,1.23239 0.75678,0.5056 1.57301,0.90787 2.41058,1.21322 0.97776,0.35801 1.97363,0.5826 2.92433,0.74814 1.30509,0.22705 2.55522,0.35866 3.72635,0.55982 0.92194,0.15745 1.79658,0.35565 2.62147,0.63845 0.47503,0.16387 0.947,0.38438 1.41403,0.64756 0.77789,0.43697 1.57857,1.01526 2.50308,1.57466 0.4061,0.2459 0.83541,0.48739 1.28867,0.70514 0.77459,0.36803 1.56223,0.61918 2.29911,0.81961 1.12271,0.3047 2.3452,0.53321 3.4671,0.83769 0.59914,0.16231 1.13827,0.33714 1.62668,0.56375 0.0402,0.0186 0.12008,0.0601 0.24399,0.11665 0.11628,0.053 0.28953,0.12604 0.50035,0.17774 0.43623,0.1114 0.89684,0.11036 1.33295,-0.004 0.25955,-0.0669 0.49254,-0.16856 0.69077,-0.27682 0.19791,-0.10809 0.36988,-0.22752 0.5135,-0.33775 0.37836,-0.29259 0.69328,-0.62062 0.92528,-0.86143 0.40977,-0.42713 0.68342,-0.72446 1.00099,-0.97393 0.21038,-0.16521 0.38328,-0.25659 0.5221,-0.2991 0.11147,-0.0346 0.23258,-0.0456 0.35463,-0.0298 0.16627,0.0209 0.36309,0.0839 0.59951,0.2046 0.004,0.002 0.008,0.004 0.0117,0.006 0.56139,0.2805 1.13264,0.55304 1.71572,0.80911 0.31477,0.13973 0.48785,0.2125 0.65134,0.30957 0.19364,0.11435 0.38406,0.2505 0.63437,0.43172 0.47756,0.34909 0.95302,0.71055 1.44731,1.08219 0.6099,0.45963 1.21862,0.91843 1.83001,1.37633 0.59684,0.44107 1.25091,0.75817 1.92095,0.96584 0.80285,0.25018 1.61316,0.34426 2.3639,0.36652 0.91486,0.0264 1.80537,-0.0488 2.62333,-0.13565 1.17473,-0.12513 2.14633,-0.27084 3.19507,-0.33138 0.47696,-0.0269 0.92675,-0.0326 1.35739,-0.002 0.25105,0.0216 0.52295,0.0762 0.8602,0.15596 0.56172,0.13503 1.16373,0.31236 1.81449,0.47468 0.62025,0.15477 1.30734,0.30548 2.03113,0.36936 0.56014,0.0485 1.18785,0.0487 1.83223,-0.087 0.47926,-0.10044 0.96421,-0.27962 1.41362,-0.55604 0.43886,-0.26552 0.91148,-0.57086 1.36318,-0.93953 0.38779,-0.31723 0.79431,-0.71383 1.12493,-1.2144 0.26419,-0.39653 0.44834,-0.81749 0.57849,-1.21488 0.15184,-0.46297 0.24886,-0.92905 0.32679,-1.29765 0.0845,-0.40278 0.15337,-0.74936 0.23591,-1.10492 0.13848,-0.57283 0.34952,-1.15019 0.60233,-1.7624 0.48948,-1.18099 1.10815,-2.39419 1.64086,-3.7287 0.26725,-0.67295 0.52309,-1.40316 0.68809,-2.18183 0.13635,-0.64767 0.21632,-1.36799 0.14066,-2.1172 -0.0617,-0.62173 -0.23538,-1.24789 -0.53474,-1.82704 -0.17665,-0.34716 -0.39015,-0.64853 -0.587,-0.89803 -0.4157,-0.5334 -0.86097,-1.0332 -1.26459,-1.48624 -0.67903,-0.76074 -1.29755,-1.43716 -1.86627,-2.16328 -0.33015,-0.42345 -0.61128,-0.8218 -0.83403,-1.22587 -0.15867,-0.28999 -0.25983,-0.53496 -0.31023,-0.75274 -0.0372,-0.16127 -0.0317,-0.26632 -0.0202,-0.32026 0.009,-0.0445 0.0326,-0.10185 0.0823,-0.16289 0.0613,-0.0749 0.15533,-0.16486 0.29478,-0.27233 0.17346,-0.13227 0.37749,-0.23231 0.58753,-0.28905 0.26493,-0.0725 0.57642,-0.094 0.93637,-0.0645 0.46086,0.0379 0.9434,0.1467 1.4882,0.29548 0.61365,0.1676 1.27481,0.38584 2.00522,0.56684 0.46129,0.11289 0.99731,0.22318 1.57343,0.24525 0.46328,0.0174 0.99623,-0.0245 1.53277,-0.21269 0.86061,-0.2936 1.6346,-0.7187 2.31804,-1.17316 0.83809,-0.55802 1.59292,-1.1915 2.27668,-1.79393 0.98668,-0.86994 1.88429,-1.72983 2.79499,-2.46714 0.55968,-0.45216 1.1054,-0.84462 1.66741,-1.1588 0.0122,-0.003 0.0429,-0.009 0.0982,-0.0125 0.15681,-0.009 0.35166,0.007 0.63178,0.0491 0.47126,0.0718 1.03437,0.20985 1.70064,0.29137 0.34635,0.041 0.78359,0.0744 1.25446,0.0108 0.34433,-0.0468 0.73841,-0.15331 1.11799,-0.37722 0.64215,-0.36754 1.25663,-0.75867 1.8426,-1.15235 0.79511,-0.53225 1.42125,-0.98319 2.12851,-1.39331 0.2203,-0.12796 0.43898,-0.24631 0.65734,-0.35546 a 1.4798206,1.4798206 90 0 0 -1.32326,-2.64734 c -0.2768,0.13835 -0.54991,0.28633 -0.81964,0.44299 -0.81627,0.47334 -1.59548,1.0292 -2.29136,1.49503 -0.55051,0.36985 -1.1062,0.72268 -1.67369,1.04711 -0.009,0.005 -0.0172,0.01 -0.0258,0.0151 0.0398,-0.0238 0.0458,-0.015 -0.0101,-0.007 -0.10611,0.0143 -0.25643,0.0129 -0.50347,-0.0163 -0.43411,-0.0531 -0.96542,-0.18077 -1.61117,-0.27922 -0.33893,-0.051 -0.7783,-0.1051 -1.25225,-0.0772 -0.36509,0.0223 -0.84075,0.10007 -1.30971,0.3528 -0.005,0.003 -0.01,0.005 -0.0146,0.008 -0.77685,0.43 -1.47928,0.94186 -2.12506,1.46358 -1.01522,0.82193 -1.99285,1.75633 -2.89081,2.54805 -0.6534,0.57568 -1.28981,1.10449 -1.95929,1.55024 -0.54079,0.35961 -1.08538,0.64949 -1.63913,0.83777 -0.006,0.002 -0.0115,0.004 -0.0173,0.006 -0.0909,0.0322 -0.23315,0.0565 -0.44278,0.0486 -0.28074,-0.0108 -0.59214,-0.0671 -0.97782,-0.16151 -0.58337,-0.14457 -1.22106,-0.35364 -1.93317,-0.54813 -0.59818,-0.16337 -1.28966,-0.32965 -2.02612,-0.39015 -0.59891,-0.049 -1.27301,-0.0282 -1.95455,0.15825 -0.57918,0.15645 -1.13011,0.4288 -1.61193,0.79629 -0.2563,0.1975 -0.53519,0.44187 -0.78734,0.7502 -0.3221,0.39579 -0.57169,0.87952 -0.68487,1.42307 -0.12187,0.57059 -0.0763,1.12646 0.0325,1.59747 0.13354,0.57708 0.36661,1.08501 0.59973,1.51102 0.33191,0.60212 0.71854,1.13922 1.0961,1.62347 0.6451,0.82365 1.34693,1.59094 1.98939,2.31069 0.41294,0.46352 0.7946,0.89346 1.14159,1.33898 0.002,0.003 0.004,0.005 0.006,0.008 0.12786,0.16184 0.21675,0.29554 0.27737,0.41468 0.002,0.003 0.003,0.007 0.005,0.01 0.11539,0.2226 0.19207,0.48345 0.21997,0.76468 0.0364,0.36043 0.003,0.76164 -0.0915,1.21081 -0.11547,0.54492 -0.30468,1.10094 -0.54205,1.69864 -0.46511,1.16517 -1.07629,2.36582 -1.626,3.69209 -0.27829,0.67394 -0.55549,1.4149 -0.74614,2.20619 -9.1e-4,0.004 -0.002,0.008 -0.003,0.0115 -0.0928,0.3992 -0.17432,0.80738 -0.25063,1.17111 -0.0831,0.3931 -0.14961,0.70068 -0.24314,0.98587 -0.0671,0.20475 -0.14552,0.37022 -0.23238,0.5006 -0.11809,0.17877 -0.2896,0.36089 -0.5313,0.55861 -0.29508,0.24084 -0.63417,0.46429 -1.02728,0.70198 -0.004,0.002 -0.008,0.005 -0.0119,0.007 -0.12729,0.0786 -0.28682,0.14261 -0.47327,0.18169 -0.27152,0.0572 -0.58906,0.0677 -0.96615,0.035 -0.49041,-0.0433 -1.00132,-0.15008 -1.5724,-0.29259 -0.57011,-0.1422 -1.17953,-0.32216 -1.84434,-0.48195 -0.37682,-0.0892 -0.82716,-0.18706 -1.30965,-0.22721 -0.006,-4.9e-4 -0.0118,-9.5e-4 -0.0177,-0.001 -0.60018,-0.0427 -1.18705,-0.0323 -1.7453,-8.3e-4 -1.142,0.0659 -2.3213,0.23471 -3.33954,0.34317 -0.78387,0.0832 -1.51464,0.14078 -2.22383,0.12032 -0.5736,-0.017 -1.09998,-0.0873 -1.57211,-0.23445 -0.38152,-0.11825 -0.7321,-0.29197 -1.03274,-0.51413 -0.59957,-0.44909 -1.20467,-0.90515 -1.81658,-1.3663 -0.47885,-0.36003 -0.98183,-0.74229 -1.48619,-1.11095 -0.23995,-0.17374 -0.53929,-0.39125 -0.86754,-0.58508 -0.35071,-0.20823 -0.73204,-0.36746 -0.96383,-0.47034 -0.53108,-0.23326 -1.0551,-0.48287 -1.58294,-0.74653 -0.4388,-0.22347 -0.96828,-0.42639 -1.56492,-0.50147 -0.52483,-0.0679 -1.07563,-0.0258 -1.60143,0.13752 -0.58915,0.18039 -1.08461,0.49088 -1.47785,0.79968 -0.52327,0.41106 -0.97219,0.90187 -1.30644,1.25028 -0.24662,0.25598 -0.41996,0.43042 -0.598,0.56811 -0.0552,0.0424 -0.0975,0.0693 -0.12582,0.0848 -0.0274,0.015 -0.0321,0.0139 -0.017,0.01 0.0411,-0.0108 0.087,-0.0116 0.13216,-0.002 0.033,0.009 0.0412,0.0153 0.008,1.1e-4 -0.0342,-0.0156 -0.10936,-0.0544 -0.22858,-0.10956 -0.70451,-0.32688 -1.42513,-0.55297 -2.09904,-0.73554 -1.1754,-0.31649 -2.28957,-0.52061 -3.46279,-0.83651 -0.65597,-0.17843 -1.25523,-0.37556 -1.79919,-0.634 -0.33706,-0.16194 -0.67982,-0.35334 -1.03199,-0.56658 -0.78514,-0.47507 -1.60971,-1.07462 -2.58443,-1.62214 -0.59002,-0.3325 -1.22567,-0.63334 -1.9028,-0.86693 -1.02826,-0.35252 -2.06992,-0.5836 -3.08424,-0.75683 -1.29623,-0.22265 -2.54478,-0.35427 -3.71848,-0.55847 -0.85631,-0.1491 -1.66367,-0.33669 -2.41625,-0.61225 -0.63625,-0.23196 -1.23799,-0.53074 -1.78608,-0.89691 -0.0822,-0.0546 -0.17639,-0.14785 -0.2637,-0.29323 -0.12419,-0.20651 -0.22337,-0.47568 -0.3001,-0.82324 -0.0991,-0.4549 -0.14053,-0.9529 -0.14752,-1.49941 -0.008,-0.79945 0.0604,-1.62107 0.17075,-2.47178 0.16004,-1.21797 0.40201,-2.44027 0.68648,-3.67902 0.22611,-0.985 0.48104,-1.96747 0.74522,-2.97269 0.0876,-0.33771 0.19078,-0.72276 0.27723,-1.10734 0.003,-0.0122 0.005,-0.0245 0.008,-0.0368 0.005,-0.0261 0.0209,-0.0921 0.0405,-0.19861 0.0174,-0.0946 0.0398,-0.23744 0.0432,-0.40667 0.007,-0.22473 -0.0358,-0.44701 -0.124,-0.65155 -0.0998,-0.2315 -0.24211,-0.40524 -0.37783,-0.5285 -0.13439,-0.12206 -0.27377,-0.2056 -0.3973,-0.26238 -0.12423,-0.0571 -0.25195,-0.0962 -0.37867,-0.11902 -0.008,-0.001 -0.0164,-0.003 -0.0247,-0.004 -0.16079,-0.0262 -0.3077,-0.0275 -0.43352,-0.0177 -0.12407,0.01 -0.23024,0.0304 -0.31117,0.0499 -0.1647,0.0397 -0.252,0.075 -0.26685,0.0799 -0.0178,0.006 -0.0354,0.0119 -0.0529,0.0184 -0.28307,0.10436 -0.54495,0.233 -0.72554,0.32017 -0.4954,0.24305 -0.95459,0.47927 -1.39794,0.68795 -0.84943,0.40149 -1.67761,0.73701 -2.51353,0.95669 -0.65148,0.17067 -1.28237,0.26297 -1.88346,0.24666 -0.49783,-0.0131 -0.97051,-0.10585 -1.38889,-0.27847 -0.39735,-0.16259 -0.77145,-0.4066 -1.10183,-0.71631 -0.42292,-0.39532 -0.78599,-0.89592 -1.09861,-1.47488 -0.0521,-0.10171 -0.0865,-0.16236 -0.0976,-0.18438 -0.0116,-0.0232 0.004,-5.9e-4 0.0221,0.0694 l -0.006,-0.0232 c -0.0177,-0.0625 -0.0337,-0.15248 -0.0541,-0.32689 -0.0358,-0.32355 -0.0499,-0.67387 -0.056,-1.06145 -0.008,-0.59122 0.008,-1.19058 0.0443,-1.79288 0.0215,-0.34037 0.0465,-0.65511 0.0871,-0.95621 0.0132,-0.091 0.0246,-0.15254 0.0297,-0.17834 0.0199,-0.0527 0.0386,-0.0759 0.0325,-0.0689 -0.009,0.01 0.0106,-0.0141 0.0714,-0.0445 0.07,-0.0351 0.15814,-0.0708 0.30145,-0.12223 0.1169,-0.0419 0.33262,-0.11514 0.51932,-0.18947 0.31042,-0.12235 0.70206,-0.30857 1.06827,-0.61105 0.36642,-0.29914 0.64958,-0.67177 0.85007,-1.0591 0.002,-0.004 0.004,-0.007 0.005,-0.0106 0.21485,-0.42334 0.38964,-0.85079 0.53939,-1.26393 0.30568,-0.84887 0.52992,-1.7064 0.70784,-2.54981 0.252,-1.20419 0.41568,-2.41912 0.50663,-3.63399 0.0908,-1.23359 0.10821,-2.48534 0.0228,-3.74182 -0.0651,-0.93521 -0.18736,-1.8961 -0.41601,-2.85374 -0.16152,-0.67004 -0.382,-1.37231 -0.7141,-2.05504 -0.0732,-0.15529 -0.15558,-0.28936 -0.23362,-0.40162 -0.17184,-0.24642 -0.35607,-0.4526 -0.49965,-0.60824 -0.28409,-0.30491 -0.5753,-0.58215 -0.86895,-0.84086 -0.17233,-0.15052 -0.37549,-0.32342 -0.60406,-0.48821 -0.006,-0.004 -0.0115,-0.008 -0.0173,-0.0123 -0.20362,-0.14241 -0.4065,-0.26708 -0.57812,-0.37116 -0.004,-0.002 -0.007,-0.004 -0.011,-0.007 -0.40954,-0.24357 -0.89805,-0.50274 -1.45309,-0.6834 -0.37082,-0.11887 -0.85392,-0.23067 -1.39527,-0.1954 -0.44369,0.0278 -0.91916,0.16391 -1.34473,0.44742 -0.23121,0.15194 -0.42691,0.33531 -0.58585,0.5204 -0.15827,0.18431 -0.28473,0.37567 -0.38589,0.55714 -0.25065,0.45133 -0.39137,0.90764 -0.48683,1.27869 -0.1499,0.5929 -0.23386,1.17984 -0.30615,1.67892 -0.0796,0.54951 -0.13857,0.99922 -0.23788,1.44185 -0.0584,0.25464 -0.11359,0.43091 -0.17693,0.56457 -0.26918,0.5411 -0.55728,1.06714 -0.86605,1.64295 -0.31256,0.58293 -0.63878,1.21376 -0.91866,1.88286 -0.28389,0.67461 -0.51338,1.37159 -0.69124,2.07793 -0.0736,0.27911 -0.0831,0.53061 -0.0871,0.6603 -1.2e-4,0.004 -2.3e-4,0.008 -3.2e-4,0.0122 -0.007,0.33196 0.0176,0.64743 0.0378,0.89217 0.0582,0.66708 0.13791,1.27993 0.18321,1.85058 0.025,0.32252 0.0393,0.59164 0.0303,0.84163 -0.006,0.13876 -0.0205,0.20553 -0.0191,0.20048 0.002,-0.005 0.003,-0.0109 0.005,-0.0164 7e-5,-2.2e-4 0.007,-0.0297 0.0374,-0.0904 0.0291,-0.0588 0.0853,-0.15516 0.18423,-0.25569 0.0437,-0.0444 0.0901,-0.086 0.13908,-0.12453 0.0932,-0.0734 0.18303,-0.12431 0.25762,-0.1594 0.0731,-0.0344 0.13447,-0.0549 0.1724,-0.0664 0.0282,-0.008 0.13497,-0.0348 0.0161,-0.006 l 0.0638,-0.0139 c -0.0342,0.007 -0.0839,0.0123 -0.22395,0.0232 -0.31476,0.0215 -0.64086,0.0278 -0.99346,0.0293 -0.40808,4.1e-4 -0.80647,-0.007 -1.19592,-0.0302 -0.16498,-0.011 -0.26309,-0.0189 -0.34713,-0.0327 l 0.0372,0.007 c -0.0595,-0.0113 -0.0241,-0.005 -0.002,6.2e-4 0.0361,0.009 0.12604,0.0323 0.23593,0.086 0.0569,0.0279 0.11197,0.0593 0.16484,0.0942 -0.27891,-0.18414 -0.5587,-0.34057 -0.80327,-0.47374 -0.55223,-0.29866 -1.11032,-0.57462 -1.63262,-0.83599 -0.62093,-0.31059 -1.20767,-0.60151 -1.7799,-0.91428 -0.28329,-0.15613 -0.52481,-0.29487 -0.74173,-0.44266 -0.12452,-0.0871 -0.16386,-0.13032 -0.14025,-0.10294 0.0103,0.0118 -0.0188,-0.0216 -0.0377,-0.1044 -0.0329,-0.14381 -0.0439,-0.33671 -0.0249,-0.61561 0.029,-0.39966 0.10927,-0.82475 0.21909,-1.31037 0.19496,-0.85063 0.45789,-1.74661 0.68669,-2.70952 0.15306,-0.64627 0.30193,-1.35604 0.37051,-2.0993 0.0489,-0.54635 0.0613,-1.17176 -0.0599,-1.81993 -0.0998,-0.53444 -0.30281,-1.11293 -0.67475,-1.63658 -0.33528,-0.47699 -0.77601,-0.85133 -1.24584,-1.11868 -0.32056,-0.19677 -0.68174,-0.31036 -1.00618,-0.36744 -0.40963,-0.0742 -0.79962,-0.0879 -1.11196,-0.092 -0.65029,-0.005 -1.2764,0.0387 -1.85949,0.0888 -1.05331,0.0933 -2.09153,0.22665 -3.10314,0.36065 -1.32865,0.17638 -2.60418,0.36147 -3.89914,0.51386 -0.64697,0.0747 -1.26474,0.13943 -1.87402,0.16957 -0.30967,0.0139 -0.56349,0.018 -0.79466,-9.3e-4 -0.0748,-0.008 -0.10474,-0.012 -0.12074,-0.0151 -0.01,-0.002 0.0143,0.001 0.0633,0.0226 0.0531,0.0237 0.1096,0.0542 0.16749,0.0937 0.0605,0.0414 0.13377,0.10039 0.20743,0.1827 0.0751,0.0839 0.15666,0.1982 0.2203,0.35018 0.0654,0.1561 0.10455,0.33701 0.0997,0.5312 l 4.6e-4,-0.0339 c 1.9e-4,-0.0947 0.0111,-0.21207 0.0362,-0.37735 0.0548,-0.35094 0.14267,-0.71698 0.24947,-1.13837 0.20595,-0.80203 0.44697,-1.63916 0.65621,-2.52393 0.17216,-0.72904 0.33286,-1.51397 0.41101,-2.33131 0.0532,-0.57209 0.0721,-1.20877 -0.0229,-1.86786 -0.0777,-0.53469 -0.24093,-1.13506 -0.57798,-1.70044 -0.27973,-0.47283 -0.66874,-0.88611 -1.13377,-1.19654 -0.01,-0.006 -0.0193,-0.0127 -0.0291,-0.0189 -0.0406,-0.0257 -0.14495,-0.0935 -0.25144,-0.15336 -0.11476,-0.0645 -0.27588,-0.14588 -0.47367,-0.20865 -0.004,-0.001 -0.009,-0.003 -0.013,-0.004 -0.2728,-0.0838 -0.53346,-0.12234 -0.6891,-0.14545 -0.004,-6.1e-4 -0.008,-0.001 -0.0123,-0.002 -0.45947,-0.0643 -0.90972,-0.0959 -1.31879,-0.12049 -0.86657,-0.0493 -1.72288,-0.0664 -2.56661,-0.0701 -0.91676,-0.002 -1.84052,0.0113 -2.76885,0.0549 -0.43639,0.0217 -0.9047,0.0491 -1.38116,0.10471 -0.004,4.7e-4 -0.008,9.7e-4 -0.0122,0.001 -0.15153,0.019 -0.40704,0.0498 -0.67279,0.11935 -0.034,0.009 -0.0676,0.019 -0.10092,0.0303 0.0665,-0.0226 0.007,-0.0112 -0.15609,0.0532 -0.0781,0.0308 -0.19481,0.083 -0.32225,0.1685 -0.13158,0.0883 -0.27602,0.21298 -0.4026,0.38576 -0.0493,0.0673 -0.0928,0.13855 -0.13003,0.21313 -0.31583,0.6321 -0.53355,1.28165 -0.69748,1.90122 -0.2315,0.87891 -0.37292,1.75883 -0.49569,2.57296 -0.16509,1.09818 -0.29198,2.07977 -0.51471,3.05129 -0.15629,0.67925 -0.35016,1.30147 -0.61769,1.85935 -0.1258,0.25627 -0.25697,0.51148 -0.39629,0.78329 -0.56108,1.08871 -1.14308,2.17065 -1.74491,3.24187 -0.50548,0.89749 -1.01829,1.7776 -1.55856,2.63236 -0.31063,0.48919 -0.6158,0.95049 -0.94025,1.38234 -0.17043,0.22467 -0.31322,0.40034 -0.45671,0.54467 -0.12889,0.12645 -0.27104,0.24864 -0.46212,0.41317 -0.4524,0.38612 -0.97068,0.81676 -1.45962,1.26297 -0.37142,0.33943 -0.76574,0.71817 -1.13489,1.14517 -0.2236,0.26072 -0.47771,0.58179 -0.69105,0.9652 -0.002,0.004 -0.005,0.008 -0.007,0.0122 -0.12745,0.2342 -0.22505,0.46313 -0.30067,0.64887 -0.2025,0.50464 -0.36153,1.01692 -0.49872,1.44118 -0.16789,0.51981 -0.31122,0.95797 -0.49153,1.36723 -0.11762,0.26472 -0.22581,0.4586 -0.33848,0.60442 -0.0755,0.0975 -0.12693,0.13343 -0.14114,0.142 -0.2078,0.10498 -0.44481,0.19333 -0.7125,0.2686 -0.50724,0.14153 -1.06116,0.21903 -1.66205,0.25916 -0.81916,0.053 -1.6629,0.0312 -2.53662,-0.0283 -1.29841,-0.0904 -2.60419,-0.2627 -3.94219,-0.45896 -1.16419,-0.17061 -2.34614,-0.36407 -3.55356,-0.53039 -0.69561,-0.0944 -1.42788,-0.18573 -2.17605,-0.23148 -0.30051,-0.0198 -0.5989,-0.0237 -0.86577,-0.0253 -0.40162,-0.009 -0.81179,-0.039 -1.25567,-0.0746 -1.01568,-0.0843 -2.03871,-0.19849 -3.07056,-0.32718 -1.39021,-0.17506 -2.77422,-0.376 -4.14794,-0.61563 -0.85994,-0.15133 -1.70032,-0.31329 -2.52282,-0.51135 -0.43433,-0.10608 -0.82882,-0.21162 -1.19797,-0.3418 -0.1931,-0.07 -0.29251,-0.11368 -0.36028,-0.1534 -0.009,-0.005 -0.0183,-0.0106 -0.0276,-0.0157 0.0986,0.055 0.1418,0.10943 0.15826,0.13228 l -0.0116,-0.0159 c 0.003,0.004 -0.005,-0.006 -0.0173,-0.0378 -0.0127,-0.0332 -0.0271,-0.0829 -0.0389,-0.15166 -0.0352,-0.20781 -0.0344,-0.46595 0.003,-0.79956 0.0553,-0.47512 0.17289,-0.97221 0.3307,-1.50463 0.23747,-0.79354 0.54462,-1.58534 0.89261,-2.38831 0.50575,-1.16191 1.08241,-2.30509 1.70405,-3.43899 0.61537,-1.1194 1.26832,-2.21782 1.9618,-3.28769 0.38175,-0.58646 0.76403,-1.15054 1.16767,-1.6861 0.17499,-0.22982 0.32215,-0.41606 0.47286,-0.57725 0.0631,-0.0679 0.14477,-0.13236 0.24863,-0.18859 0.18978,-0.10295 0.4382,-0.18326 0.76573,-0.24254 0.43713,-0.0779 0.91335,-0.10266 1.45061,-0.10475 1.10673,-0.001 2.29945,0.10656 3.58089,0.11927 0.62916,0.005 1.32043,-0.011 2.02721,-0.11854 0.52927,-0.082 1.13127,-0.22468 1.71821,-0.51565 0.4769,-0.23573 0.94792,-0.58008 1.32501,-1.05073 0.28959,-0.35705 0.47177,-0.73461 0.59562,-1.02968 0.20471,-0.48771 0.36835,-1.07899 0.36067,-1.72872 -0.004,-0.53368 -0.13091,-1.05999 -0.35499,-1.533 -0.25915,-0.55141 -0.62665,-0.99371 -0.97029,-1.33679 -0.45393,-0.45177 -0.95017,-0.81845 -1.35982,-1.11769 -0.41051,-0.30018 -0.72261,-0.51781 -1.01746,-0.77178 -0.18428,-0.1601 -0.28828,-0.27409 -0.34915,-0.36512 -0.0367,-0.057 -0.0845,-0.15698 -0.15719,-0.35492 -0.0734,-0.21197 -0.096,-0.39716 -0.0839,-0.54436 0.0109,-0.14061 0.0557,-0.29943 0.14524,-0.4688 0.12502,-0.23723 0.31634,-0.48238 0.58787,-0.76553 0.25521,-0.26521 0.53893,-0.52104 0.86546,-0.8107 0.31366,-0.27823 0.67699,-0.59636 1.02199,-0.93823 0.34134,-0.34023 0.73131,-0.7661 1.04504,-1.29296 0.25347,-0.42533 0.46668,-0.94529 0.53356,-1.53335 0.07,-0.58683 -0.0212,-1.15771 -0.19412,-1.65336 -0.17955,-0.51214 -0.44553,-0.99001 -0.78386,-1.41062 -0.43337,-0.54013 -0.96464,-0.95174 -1.50185,-1.25789 -0.63517,-0.36242 -1.29656,-0.59714 -1.89921,-0.77215 -0.85308,-0.24587 -1.72777,-0.41049 -2.48581,-0.56657 -0.74319,-0.15305 -1.40517,-0.29719 -2.02938,-0.50612 -0.47876,-0.16104 -0.88375,-0.34624 -1.21434,-0.57639 -0.25775,-0.17886 -0.46686,-0.3891 -0.61733,-0.61537 -0.1568,-0.233831 -0.27664,-0.517587 -0.35451,-0.844441 -0.0632,-0.2664 -0.068,-0.484068 -0.036,-0.648136 0.0253,-0.133171 0.0834,-0.271651 0.17763,-0.403279 0.13111,-0.183986 0.32706,-0.370289 0.6051,-0.56814 0.36197,-0.256376 0.78234,-0.480192 1.2708,-0.711899 0.89666,-0.422513 1.89858,-0.802643 2.93658,-1.28797 0.63512,-0.297554 1.3169,-0.648274 1.96493,-1.102514 0.52991,-0.372478 1.07579,-0.844004 1.52042,-1.451967 0.004,-0.0057 0.008,-0.0115 0.0125,-0.01729 0.16863,-0.23769 0.41776,-0.605555 0.5773,-1.064255 0.002,-0.0062 0.004,-0.01248 0.006,-0.01875 0.16831,-0.505633 0.19059,-0.992798 0.18093,-1.368152 -0.0173,-0.570696 -0.11397,-1.098584 -0.21364,-1.551391 -0.16465,-0.735443 -0.38074,-1.442055 -0.57812,-2.087193 -0.24237,-0.7912 -0.46865,-1.50106 -0.64415,-2.226163 -0.10433,-0.436693 -0.17752,-0.823531 -0.20183,-1.188512 -0.016,-0.256631 -0.001,-0.428313 0.0296,-0.546821 0.0178,-0.06835 0.0348,-0.07269 0.009,-0.04581 l 0.008,-0.0091 c -0.0243,0.02609 -0.0274,0.01816 0.019,-0.0032 0.007,-0.003 0.0133,-0.0061 0.0199,-0.0093 0.27612,-0.131715 0.58519,-0.241937 0.95834,-0.363257 0.63033,-0.20272 1.31512,-0.389393 2.03209,-0.616947 0.6542,-0.207647 1.36063,-0.453287 2.05298,-0.789023 0.52049,-0.253662 1.07682,-0.579082 1.58364,-1.024706 0.4246,-0.373306 0.82618,-0.847669 1.10899,-1.427674 0.005,-0.01072 0.0103,-0.02151 0.0153,-0.03235 0.12246,-0.267375 0.16731,-0.532014 0.17123,-0.762162 0.004,-0.228327 -0.0319,-0.436613 -0.0838,-0.614189 -0.11902,-0.408917 -0.331,-0.7187 -0.45999,-0.894835 -0.003,-0.0035 -0.005,-0.0069 -0.008,-0.0104 -0.25177,-0.337535 -0.53229,-0.61333 -0.76238,-0.827872 -0.44726,-0.412832 -0.90878,-0.77404 -1.33783,-1.099913 -0.81788,-0.617821 -1.67888,-1.217309 -2.46089,-1.781921 -0.61237,-0.44257 -1.19025,-0.867091 -1.73473,-1.317057 -0.31533,-0.262371 -0.58513,-0.503157 -0.81425,-0.753047 -0.13198,-0.145811 -0.19798,-0.237357 -0.23259,-0.300533 -0.18032,-0.358152 -0.3121,-0.748962 -0.39223,-1.156909 -0.11198,-0.566724 -0.12989,-1.177982 -0.0802,-1.826871 0.0622,-0.808627 0.21945,-1.62958 0.41115,-2.511856 0.23612,-1.08544 0.54635,-2.323542 0.73033,-3.552061 0.13069,-0.877338 0.20883,-1.822293 0.13236,-2.792819 -0.0627,-0.806823 -0.23742,-1.629567 -0.55745,-2.417006 -0.003,-0.0075 -0.006,-0.01505 -0.009,-0.02253 -0.0532,-0.124905 -0.17008,-0.41946 -0.33023,-0.689399 -0.0116,-0.01962 -0.0237,-0.03896 -0.0363,-0.05802 -0.24905,-0.378715 -0.56416,-0.625342 -0.76087,-0.767319 -0.003,-0.0024 -0.007,-0.0048 -0.0101,-0.0072 -0.36614,-0.259639 -0.74324,-0.44616 -1.04755,-0.587513 -0.5493,-0.251832 -1.09704,-0.455986 -1.59918,-0.639007 -0.98438,-0.35597 -1.94272,-0.676988 -2.85618,-1.026029 -0.79222,-0.302917 -1.53779,-0.6157 -2.2345,-0.984417 -0.49278,-0.262134 -0.92906,-0.535299 -1.30141,-0.845056 -0.29633,-0.247416 -0.51559,-0.491693 -0.65901,-0.734257 -0.0745,-0.126795 -0.14718,-0.289609 -0.22653,-0.505185 -0.15165,-0.418407 -0.26085,-0.883423 -0.34609,-1.391469 -0.12119,-0.732931 -0.17868,-1.492467 -0.19141,-2.270048 -0.0138,-0.930907 0.0383,-1.862731 0.15979,-2.782829 0.096,-0.717934 0.23118,-1.410029 0.42703,-2.068239 0.13198,-0.439384 0.28121,-0.832505 0.4657,-1.179044 0.0848,-0.155607 0.14336,-0.249166 0.1949,-0.315693 0.0942,-0.120472 0.24463,-0.258244 0.47587,-0.42419 0.31466,-0.224318 0.67297,-0.426791 1.10014,-0.657731 0.6127,-0.330379 1.38984,-0.71948 2.09679,-1.178282 0.46062,-0.300222 0.96079,-0.671892 1.40437,-1.153834 0.36982,-0.401367 0.70875,-0.896884 0.92631,-1.481546 0.0892,-0.232639 0.13694,-0.449636 0.16684,-0.612259 0.0656,-0.36117 0.096,-0.706341 0.11544,-1.010868 0.0337,-0.563081 0.0331,-1.126358 -0.006,-1.690508 -0.0313,-0.427236 -0.0861,-0.894337 -0.20319,-1.372556 -0.0709,-0.282824 -0.17935,-0.646074 -0.38189,-1.010584 -0.0738,-0.130933 -0.16809,-0.278825 -0.29462,-0.427809 -0.12752,-0.150159 -0.29676,-0.311978 -0.51728,-0.449144 -0.0333,-0.0207 -0.0674,-0.04007 -0.10218,-0.05806 -0.48879,-0.252619 -0.98252,-0.475356 -1.46737,-0.678581 -0.89194,-0.369187 -1.84561,-0.690221 -2.855,-0.877342 -0.86556,-0.159964 -1.80095,-0.222137 -2.75034,-0.08836 -0.74941,0.103991 -1.48339,0.331873 -2.16264,0.672272 -0.75981,0.378391 -1.42004,0.878622 -1.98842,1.401184 -0.72243,0.664316 -1.34555,1.401589 -1.90041,2.06191 -0.68186,0.812659 -1.27746,1.534583 -1.9516,2.169402 -0.49563,0.467411 -1.01139,0.85941 -1.55422,1.149757 -0.20102,0.108874 -0.36123,0.178166 -0.5015,0.219548 -0.17863,0.05352 -0.33787,0.06734 -0.47113,0.05317 -0.14192,-0.01449 -0.30735,-0.06197 -0.49751,-0.156122 -0.26576,-0.131308 -0.53456,-0.319383 -0.87915,-0.58227 -0.33694,-0.256894 -0.81802,-0.650093 -1.31797,-0.963052 -0.45743,-0.288035 -0.95917,-0.51197 -1.48342,-0.660877 -0.74523,-0.21305 -1.51187,-0.261969 -2.24019,-0.191783 -0.87087,0.08304 -1.68676,0.328381 -2.41869,0.6328 -0.8998,0.375577 -1.72248,0.857681 -2.47516,1.368156 -1.00644,0.684748 -1.93038,1.450355 -2.79485,2.232737 -0.78836,0.713448 -1.53689,1.456713 -2.25884,2.184572 -0.18758,0.182327 -0.31343,0.317877 -0.3834,0.381093 -0.0777,0.06048 -0.19973,0.130967 -0.40284,0.21763 -0.31729,0.133429 -0.68105,0.238408 -1.09745,0.333681 -0.66358,0.14962 -1.35915,0.247042 -2.08454,0.318537 -1.0495,0.101468 -2.11478,0.140485 -3.18875,0.133907 -1.01495,-0.0076 -2.0224,-0.05571 -3.01707,-0.159277 -0.617,-0.06557 -1.20629,-0.148469 -1.77161,-0.272084 -0.30619,-0.06834 -0.56048,-0.137301 -0.78156,-0.223444 -0.10237,-0.04639 -0.14005,-0.06016 -0.11162,-0.04661 0.014,0.0067 0.0545,0.02659 0.10682,0.06157 0.0526,0.03516 0.12001,0.0874 0.18916,0.161146 0.10083,0.108286 0.10391,0.153858 0.0777,0.0939 l 0.007,0.01572 c -0.0459,-0.10855 -0.0868,-0.25109 -0.13781,-0.479117 -0.0829,-0.381212 -0.14082,-0.791965 -0.19409,-1.243094 -0.0994,-0.861107 -0.15974,-1.737439 -0.21938,-2.648399 -0.036,-0.545213 -0.0699,-1.132437 -0.11871,-1.710723 -0.0191,-0.212889 -0.043,-0.490403 -0.0918,-0.773863 -0.0421,-0.23555 -0.10854,-0.451395 -0.13652,-0.547697 -0.001,-0.0051 -0.003,-0.0102 -0.005,-0.01529 -0.23265,-0.769713 -0.57386,-1.470251 -0.9349,-2.096973 -0.47753,-0.826966 -1.02562,-1.587699 -1.53717,-2.284644 -0.43733,-0.596385 -0.83498,-1.122612 -1.20469,-1.678195 -0.42526,-0.645689 -0.88295,-1.292495 -1.38002,-1.919117 -0.42899,-0.539485 -0.90058,-1.085769 -1.43436,-1.595775 -0.3494,-0.331673 -0.75781,-0.681915 -1.23788,-0.979814 -0.32847,-0.201773 -0.7601,-0.424856 -1.27882,-0.533662 -0.42047,-0.08854 -0.93662,-0.100858 -1.45863,0.0831 l 0.0103,-0.0036 c -0.5162,0.17764 -0.90742,0.500151 -1.17998,0.819029 -0.002,0.0028 -0.005,0.0056 -0.007,0.0084 -0.20984,0.24924 -0.39551,0.535927 -0.53683,0.854597 -0.0194,0.04379 -0.0367,0.0885 -0.0518,0.13397 -0.0681,0.205398 -0.0919,0.392611 -0.0994,0.538058 -0.007,0.142817 2.6e-4,0.265943 0.006,0.34231 5.4e-4,0.0069 0.001,0.01375 0.002,0.02063 0.0328,0.355198 0.12014,0.669869 0.18268,0.883214 9.6e-4,0.0033 0.002,0.0066 0.003,0.0098 0.1358,0.451652 0.30294,0.876321 0.45706,1.253315 0.32408,0.78595 0.68349,1.56207 1.00741,2.283449 0.22106,0.493296 0.42521,0.950103 0.60512,1.410282 0.0971,0.252398 0.16134,0.434292 0.20004,0.600283 0.0739,0.318027 0.12647,0.656835 0.18016,1.043764 0.10715,0.794001 0.18212,1.606231 0.24679,2.437679 0.11081,1.453077 0.17971,2.914411 0.21755,4.37982 0.0362,1.453323 0.0416,2.899244 -0.004,4.337523 -0.0301,0.897714 -0.0779,1.774867 -0.17088,2.636678 -0.054,0.486894 -0.11678,0.933954 -0.21292,1.355674 -0.0539,0.229643 -0.10008,0.380599 -0.15163,0.494462 -0.0148,0.03268 -0.0284,0.06588 -0.0408,0.09955 0.0561,-0.152619 0.13935,-0.271227 0.22244,-0.357428 0.0778,-0.08072 0.16005,-0.138219 0.23749,-0.178582 0.0528,-0.02752 0.0711,-0.0191 -0.0544,0.0017 -0.18931,0.02832 -0.40729,0.03626 -0.69354,0.03409 -0.50043,-0.0061 -1.02006,-0.04723 -1.57842,-0.09977 -1.04342,-0.10069 -2.10987,-0.238232 -3.20135,-0.361213 -0.93585,-0.105245 -1.90707,-0.207058 -2.89207,-0.256158 -0.5945,-0.02809 -1.23223,-0.04132 -1.8865,0.009 -0.39561,0.03232 -0.86608,0.08996 -1.34932,0.240124 -0.29633,0.09099 -0.583,0.22273 -0.84749,0.38853 -0.47548,0.29406 -0.86081,0.688317 -1.15207,1.107386 -0.34564,0.495779 -0.56563,1.023163 -0.7209,1.487832 -0.22964,0.691315 -0.36802,1.407824 -0.48879,1.97074 -0.0851,0.393712 -0.15534,0.704583 -0.25197,0.9913 -0.0432,0.125998 -0.0788,0.209511 -0.10952,0.267263 -0.0221,0.03751 -0.0776,0.11116 -0.21274,0.232689 -0.12468,0.111624 -0.2702,0.224119 -0.46089,0.36735 -0.17632,0.132443 -0.4084,0.303575 -0.62973,0.488586 -0.25909,0.217141 -0.5886,0.52018 -0.85996,0.926917 -0.28569,0.42464 -0.43337,0.881097 -0.51043,1.273581 -0.10988,0.564657 -0.10311,1.102139 -0.0711,1.552008 0.0499,0.665222 0.16873,1.294675 0.29569,1.868177 0.20823,0.929631 0.47049,1.836776 0.71333,2.687352 0.25613,0.897201 0.49876,1.734331 0.68894,2.580473 0.11758,0.529767 0.20516,1.015735 0.238,1.483601 0.0209,0.315626 0.0118,0.559403 -0.0286,0.756918 -0.0223,0.108004 -0.0555,0.170212 -0.0628,0.183571 -0.006,0.0065 -0.0143,0.01571 -0.0258,0.02827 -0.0354,0.03877 -0.1271,0.138509 -0.21845,0.275248 -0.17627,0.251328 -0.34546,0.507657 -0.49698,0.734822 -0.60141,0.907384 -1.18985,1.815403 -1.77093,2.723778 -0.45285,0.709725 -0.90862,1.429008 -1.35195,2.1604 -0.15574,0.259018 -0.33243,0.551629 -0.49652,0.857688 -0.0704,0.129756 -0.13978,0.277619 -0.19942,0.436665 -0.10737,0.284551 -0.1917,0.597997 -0.24272,0.771783 -0.0874,0.299052 -0.14615,0.478951 -0.21783,0.625752 -0.0471,0.0956 -0.0615,0.09033 -0.0207,0.05455 0.0229,-0.01989 0.0733,-0.06324 0.18556,-0.10217 0.0981,-0.03379 0.18209,-0.04365 0.24536,-0.04433 0.0627,-6.78e-4 0.11174,0.0074 0.14645,0.01603 0.0432,0.01065 0.005,0.0049 -0.0915,-0.05707 -0.14644,-0.09556 -0.3073,-0.230308 -0.52251,-0.426083 -0.21398,-0.194745 -0.45644,-0.436919 -0.75284,-0.69778 -0.003,-0.0025 -0.006,-0.005 -0.009,-0.0074 -0.12013,-0.104113 -0.33265,-0.288248 -0.59854,-0.444806 -0.29559,-0.175278 -0.5869,-0.245837 -0.69809,-0.273486 -0.005,-0.0012 -0.009,-0.0023 -0.014,-0.0034 -0.3245,-0.07734 -0.63667,-0.116319 -0.88187,-0.14432 -0.56998,-0.06215 -1.12382,-0.09048 -1.6537,-0.106862 -0.74513,-0.02133 -1.49287,-0.01831 -2.2435,0.01769 -0.43021,0.02191 -0.89352,0.05398 -1.36754,0.123499 -0.004,5.35e-4 -0.007,0.0011 -0.0109,0.0016 -0.1934,0.02984 -0.48532,0.07712 -0.79053,0.17825 -0.16589,0.05505 -0.30068,0.120959 -0.38214,0.162421 -0.0866,0.04408 -0.13604,0.07096 -0.1492,0.07739 -0.0113,0.0055 -0.0225,0.01119 -0.0337,0.017 -0.53151,0.276566 -1.04229,0.555905 -1.54163,0.820634 -1.17347,0.623681 -2.32325,1.20821 -3.49623,1.706728 -0.68138,0.288268 -1.3466,0.538724 -2.01257,0.725867 -0.45286,0.125947 -0.8689,0.212862 -1.2635,0.243899 -0.28079,0.02108 -0.49063,0.0078 -0.64958,-0.03091 -0.0794,-0.01982 -0.11983,-0.04265 -0.11454,-0.03936 0.0499,0.0312 0.076,0.06416 0.0912,0.0919 9.2e-4,0.0017 -0.0312,-0.07005 -0.0476,-0.218371 -0.0232,-0.218392 -0.0148,-0.476771 0.0164,-0.813734 0.0671,-0.701711 0.22954,-1.503117 0.30999,-2.420852 0.0332,-0.396347 0.0566,-0.87232 -0.005,-1.375804 -0.0476,-0.378462 -0.15456,-0.86347 -0.43496,-1.332458 -0.23186,-0.391326 -0.56885,-0.727133 -0.97614,-0.959598 -0.0139,-0.0079 -0.0279,-0.01564 -0.0421,-0.02311 -0.46543,-0.245995 -0.94615,-0.436037 -1.42359,-0.582538 -0.87568,-0.266864 -1.78316,-0.376954 -2.67571,-0.346982 -1.08193,0.03455 -2.11868,0.26758 -3.06959,0.584218 -1.09149,0.36409 -2.11204,0.846814 -3.06296,1.34748 -1.44077,0.760873 -2.87612,1.65071 -4.19323,2.410979 -1.04221,0.601229 -2.05145,1.152791 -3.08854,1.599193 -0.83166,0.356972 -1.65201,0.631293 -2.47003,0.775096 -0.67691,0.119457 -1.34704,0.14297 -1.98297,0.05495 -0.62232,-0.08458 -1.23464,-0.279217 -1.80885,-0.567295 -0.49012,-0.245141 -0.96797,-0.482919 -1.44749,-0.725028 -0.63416,-0.32134 -1.23108,-0.625861 -1.80507,-0.956791 -0.35932,-0.208885 -0.66226,-0.399991 -0.92314,-0.60761 -0.19761,-0.158484 -0.30244,-0.275924 -0.35731,-0.363817 -0.0273,-0.04349 -0.0406,-0.08422 -0.0449,-0.116272 -0.011,-0.08011 -0.008,-0.211423 0.044,-0.433804 0.0674,-0.28518 0.17937,-0.590239 0.32994,-0.952289 0.22872,-0.544244 0.49372,-1.088131 0.77915,-1.668443 0.27269,-0.554291 0.45995,-0.919844 0.73269,-1.474239 0.34529,-0.702417 0.67197,-1.338115 1.05085,-1.919832 0.21455,-0.327894 0.42286,-0.6048 0.64399,-0.833807 0.15762,-0.16217 0.28425,-0.259558 0.38612,-0.315161 0.15032,-0.07738 0.33199,-0.147681 0.56554,-0.222941 0.45756,-0.145892 0.89863,-0.244138 1.4771,-0.394597 0.52592,-0.136648 1.13415,-0.305372 1.73483,-0.566108 0.48156,-0.209611 1.00458,-0.500116 1.47202,-0.92542 0.45685,-0.413151 0.82668,-0.935295 1.06121,-1.523167 0.22979,-0.571407 0.30946,-1.167525 0.29149,-1.721673 -0.0206,-0.659735 -0.17121,-1.268701 -0.34079,-1.786831 -0.23525,-0.71372 -0.54618,-1.375775 -0.81983,-1.950894 -0.26436,-0.556271 -0.48993,-1.010003 -0.67826,-1.488097 -0.11749,-0.301724 -0.18908,-0.53658 -0.21938,-0.742259 -0.0196,-0.134856 -0.004,-0.21079 -0.005,-0.207645 -0.004,0.0132 -0.008,0.01172 0.002,0.0014 0.003,-0.0028 0.006,-0.0056 0.008,-0.0084 -0.0491,0.0494 -0.0652,0.04583 -0.0396,0.03717 0.0812,-0.02763 0.2049,-0.05053 0.45617,-0.07146 0.23691,-0.01951 0.79662,-0.03837 1.24869,-0.115491 0.33879,-0.05857 0.78425,-0.171153 1.21747,-0.437141 0.35207,-0.214126 0.65253,-0.510439 0.87454,-0.855928 0.28423,-0.437161 0.47528,-0.888281 0.61812,-1.274561 0.2203,-0.602181 0.37712,-1.201861 0.5118,-1.740724 0.18562,-0.744253 0.3189,-1.359185 0.50606,-2.004087 0.10607,-0.361206 0.20828,-0.660397 0.33284,-0.921474 0.0801,-0.16593 0.14098,-0.253739 0.18185,-0.299418 0.23241,-0.234347 0.43032,-0.475528 0.59133,-0.677288 0.36064,-0.455122 0.68917,-0.915312 0.99663,-1.359884 0.48364,-0.702263 0.94485,-1.41529 1.38382,-2.140758 0.27499,-0.456575 0.55329,-0.934753 0.81079,-1.435826 0.008,-0.01643 0.0166,-0.03301 0.0244,-0.04974 0.0286,-0.0612 0.0484,-0.0771 0.0327,-0.06198 l 0.0136,-0.01333 c 0.0542,-0.0536 0.16128,-0.129886 0.36787,-0.220929 0.28362,-0.123678 0.61813,-0.217735 1.02338,-0.306407 0.62383,-0.134282 1.27059,-0.221374 1.9846,-0.318488 0.70464,-0.09583 1.48544,-0.195705 2.26039,-0.355901 0.48564,-0.102115 1.03188,-0.237954 1.57665,-0.464916 0.38545,-0.162463 0.85006,-0.402693 1.26302,-0.792637 0.34126,-0.320833 0.63854,-0.749524 0.79661,-1.265802 0.17477,-0.558091 0.15069,-1.106717 0.0689,-1.542796 -0.10248,-0.54316 -0.3037,-1.017045 -0.49776,-1.400506 -0.002,-0.0038 -0.004,-0.0076 -0.006,-0.01133 -0.2754,-0.532809 -0.66631,-0.954705 -1.07487,-1.272461 -0.49892,-0.388568 -1.03946,-0.645147 -1.52274,-0.829053 -0.6609,-0.249478 -1.32151,-0.404923 -1.93002,-0.522213 -1.18493,-0.225804 -2.44566,-0.347028 -3.49947,-0.48772 -0.51985,-0.07043 -0.98538,-0.141323 -1.4272,-0.246665 -0.27541,-0.06695 -0.47872,-0.13206 -0.64006,-0.20903 -0.63553,-0.316972 -1.26278,-0.659924 -1.88557,-1.020862 -1.84932,-1.072107 -3.59619,-2.266395 -5.47039,-3.469688 -1.43422,-0.920681 -2.92252,-1.832312 -4.49672,-2.619491 -0.3096,-0.154324 -0.58274,-0.342026 -0.81017,-0.556871 -0.22317,-0.209525 -0.42667,-0.466766 -0.61641,-0.770077 -0.25824,-0.410278 -0.50569,-0.938369 -0.84204,-1.532615 -0.2505,-0.44276 -0.56769,-0.93399 -0.99321,-1.38063 -0.39429,-0.416861 -0.85874,-0.764966 -1.36187,-1.029734 -0.75021,-0.389433 -1.53723,-0.659253 -2.33105,-0.826432 -1.15675,-0.244002 -2.32154,-0.270138 -3.42786,-0.170178 -1.28325,0.116502 -2.52058,0.400046 -3.68961,0.758067 -1.46322,0.449874 -2.86176,1.028921 -4.19742,1.657277 -1.87944,0.886247 -3.67948,1.894004 -5.41858,2.919261 -1.3553,0.798567 -2.67536,1.614146 -3.98826,2.399962 -0.79592,0.474587 -1.56328,0.925414 -2.344,1.334273 -0.003,0.0016 -0.006,0.0032 -0.009,0.0048 -0.31143,0.165851 -0.55732,0.279931 -0.78608,0.350526 -0.005,0.0015 -0.009,0.0029 -0.0141,0.0044 -0.49207,0.157244 -1.04137,0.232946 -1.64124,0.253245 -0.74725,0.02404 -1.51907,-0.03808 -2.32081,-0.14549 -1.12142,-0.152091 -2.24645,-0.387129 -3.39987,-0.647137 -1.37833,-0.31095 -2.77812,-0.661824 -4.21984,-0.955806 -0.88538,-0.179009 -1.80902,-0.342805 -2.75855,-0.429157 -0.67372,-0.05964 -1.39971,-0.0854 -2.14563,-0.0048 -0.59213,0.06529 -1.24857,0.204438 -1.88411,0.508528 -0.003,0.0015 -0.006,0.0031 -0.01,0.0047 -0.58287,0.284081 -1.09838,0.636866 -1.55084,0.992515 -0.66173,0.521529 -1.25138,1.097615 -1.77804,1.621471 -0.67636,0.673155 -1.2468,1.264533 -1.8807,1.804438 -0.44453,0.377825 -0.87476,0.68785 -1.31483,0.914609 -0.47217,0.237707 -0.95399,0.465149 -1.44355,0.689275 -1.92973,0.881453 -3.94893,1.687743 -5.95165,2.648202 -1.26704,0.608143 -2.53855,1.281842 -3.74846,2.087819 -1.04146,0.694366 -2.0479,1.496826 -2.936,2.445746 -0.7593,0.809978 -1.42379,1.724154 -1.94258,2.72648 -0.21417,0.406738 -0.3811,0.820334 -0.51517,1.222518 -0.24136,0.724903 -0.39887,1.450963 -0.52508,2.123665 -0.17841,0.962169 -0.31163,1.935594 -0.44293,2.838124 -0.19795,1.373031 -0.40105,2.682909 -0.69473,3.961733 -0.28903,1.261678 -0.66006,2.467844 -1.16005,3.594628 -0.16227,0.35453 -0.2617,0.58073 -0.38865,0.793408 -0.18271,0.301439 -0.45665,0.600133 -0.80656,0.890642 -0.42292,0.350403 -0.91324,0.659291 -1.46089,0.96138 -0.8474,0.465491 -1.73413,0.860676 -2.6922,1.306208 -0.71352,0.332243 -1.47307,0.690749 -2.2121,1.117793 -0.52932,0.307581 -1.08971,0.672629 -1.6068,1.136887 -0.42391,0.381635 -0.84975,0.862046 -1.15941,1.46099 -0.32628,0.63922 -0.5226,1.290156 -0.65777,1.884925 -0.17946,0.794634 -0.2739,1.592327 -0.35768,2.289389 -0.0998,0.832651 -0.18263,1.551663 -0.34005,2.251159 -0.11674,0.516726 -0.26541,0.9695 -0.46634,1.359981 -0.12698,0.245628 -0.30769,0.470398 -0.5244,0.653193 -0.28076,0.238091 -0.63928,0.433195 -1.06719,0.592001 -0.53324,0.197319 -1.12039,0.325611 -1.76195,0.425141 -0.91873,0.140676 -1.85986,0.207688 -2.86174,0.284582 -0.91043,0.07003 -1.87563,0.142668 -2.84364,0.29392 -0.68857,0.109121 -1.42041,0.263021 -2.14462,0.529831 -0.61502,0.227422 -1.26209,0.553792 -1.835,1.04448 -0.51083,0.435259 -0.93112,0.983965 -1.21358,1.603405 -0.002,0.0034 -0.003,0.0069 -0.005,0.01032 -0.23504,0.526083 -0.34056,1.053312 -0.39973,1.489627 -0.0907,0.690248 -0.0908,1.355265 -0.0678,1.953061 0.0387,0.938575 0.14473,1.852023 0.26224,2.712819 0.20565,1.487043 0.47607,2.988584 0.71379,4.389344 0.21885,1.290483 0.42116,2.519177 0.56158,3.750879 0.0893,0.796532 0.14885,1.549598 0.14617,2.284114 -0.003,0.513047 -0.0362,0.963819 -0.12235,1.373168 -0.003,0.01386 -0.007,0.03293 -0.0115,0.0517 -0.061,0.265301 -0.1338,0.448304 -0.21285,0.57585 -0.0479,0.07753 -0.0918,0.115181 -0.11377,0.130048 -0.2489,0.130306 -0.52107,0.243845 -0.81469,0.345512 -0.6201,0.21293 -1.28172,0.319013 -1.94186,0.315099 -0.7557,-0.0031 -1.52749,-0.143853 -2.29287,-0.38729 -0.92299,-0.293694 -1.82235,-0.724694 -2.70775,-1.238874 -1.08673,-0.63273 -2.12685,-1.375245 -3.15082,-2.174627 -1.7549,-1.372278 -3.40854,-2.875139 -5.13471,-4.393302 -0.92307,-0.810345 -1.87033,-1.631892 -2.86794,-2.407614 -0.68726,-0.532264 -1.41991,-1.062001 -2.21534,-1.52619 -0.007,-0.0039 -0.0135,-0.0078 -0.0203,-0.01161 -0.20627,-0.116051 -0.55553,-0.323553 -0.92963,-0.475958 -0.005,-0.0021 -0.0101,-0.0041 -0.0152,-0.0061 -0.44993,-0.177519 -0.96517,-0.269136 -1.4991,-0.215297 -0.55885,0.05324 -1.04956,0.25828 -1.43581,0.487442 -0.47822,0.283909 -0.8621,0.634305 -1.16217,0.938648 -0.47171,0.481328 -0.89277,1.016842 -1.2314,1.429502 -0.27011,0.328385 -0.48618,0.585801 -0.71638,0.80823 -0.15077,0.144232 -0.24341,0.209462 -0.30244,0.240137 -0.1071,0.05565 -0.20701,0.124211 -0.29746,0.20412 0.15168,-0.134005 0.31988,-0.225701 0.48549,-0.282461 0.15933,-0.05461 0.29762,-0.07064 0.39021,-0.07526 0.0899,-0.0045 0.15887,0.001 0.17999,0.0028 0.0266,0.0022 0.0221,0.0017 -0.0163,-0.0015 l 0.0643,0.0068 c -0.0173,-0.0022 -0.0868,-0.01568 -0.20679,-0.04024 -0.44519,-0.09584 -0.89176,-0.204603 -1.35667,-0.317433 -1.33423,-0.326762 -2.66757,-0.669418 -3.992598,-1.016208 -1.242579,-0.326388 -2.466092,-0.652765 -3.68121,-0.995481 -0.456062,-0.129775 -0.882935,-0.251536 -1.302468,-0.386063 -0.104861,-0.03481 -0.179036,-0.06038 -0.216559,-0.07449 -0.124528,-0.06444 -0.235085,-0.142138 -0.328282,-0.228213 -0.139887,-0.128607 -0.267982,-0.304351 -0.372615,-0.524783 -0.140892,-0.29598 -0.24052,-0.648663 -0.32241,-1.077163 -0.131286,-0.694527 -0.191785,-1.488012 -0.313942,-2.356091 -0.08296,-0.586606 -0.199064,-1.248902 -0.429582,-1.910783 -0.19055,-0.54675 -0.474176,-1.121572 -0.904185,-1.633668 -0.387131,-0.464654 -0.866147,-0.835932 -1.382294,-1.102141 -0.369853,-0.194864 -0.747726,-0.297045 -1.087872,-0.346698 -0.513392,-0.07472 -0.993812,-0.04468 -1.372615,-0.0039 -0.687757,0.07632 -1.27104,0.208892 -1.774258,0.288915 -0.353612,0.0558 -0.620806,0.08471 -0.858133,0.07835 -0.151863,-0.0044 -0.236444,-0.02524 -0.275814,-0.0395 -0.483245,-0.237763 -0.981241,-0.464226 -1.496563,-0.665854 -1.594024,-0.628753 -3.244498,-1.037403 -4.874478,-1.293374 -1.951651,-0.305281 -3.906653,-0.398792 -5.81843,-0.350533 -2.235281,0.05799 -4.440248,0.310026 -6.586984,0.709662 -2.060928,0.385229 -4.079959,0.907968 -6.037857,1.571954 -1.488615,0.506402 -2.945712,1.094583 -4.349053,1.795158 -0.08142,0.04072 -0.172812,0.07717 -0.275242,0.109086 -0.284863,0.08842 -0.619654,0.134484 -1.019478,0.153987 -0.563862,0.0263 -1.143245,-0.0038 -1.802458,-0.03458 -0.620643,-0.02894 -1.314774,-0.06352 -2.022789,-0.02703 -0.532165,0.02855 -1.123661,0.09901 -1.720143,0.287815 -0.0058,0.0018 -0.01162,0.0037 -0.01741,0.0056 -0.371655,0.122715 -0.73809,0.248448 -1.093623,0.37236 -1.767243,0.616553 -3.489632,1.293927 -5.163929,2.01909 -2.203831,0.952902 -4.353361,2.000064 -6.419525,3.033411 -0.143571,0.07197 -0.319321,0.125202 -0.523725,0.153543 -0.326517,0.0452 -0.695693,0.03085 -1.118095,-0.02746 -0.559879,-0.07865 -1.133514,-0.222348 -1.739154,-0.393971 -0.965231,-0.275739 -1.947472,-0.608093 -2.966321,-0.907999 -1.00787,-0.296886 -2.053188,-0.567617 -3.140964,-0.718067 -0.925192,-0.127433 -1.889382,-0.166272 -2.85819,-0.03563 -0.85344,0.113844 -1.687153,0.362042 -2.453527,0.74661 -0.442185,0.221046 -0.909396,0.402688 -1.38655,0.553035 -0.932306,0.293019 -1.90753,0.471592 -2.887684,0.584671 -1.281728,0.146429 -2.575036,0.180515 -3.843242,0.160277 C 10.641508,80.445868 8.7553829,80.290009 6.9361563,80.104981 5.4356404,79.952702 3.9656532,79.775293 2.5235509,79.622578 a 1.4798206,1.4798206 90 0 0 -0.3116758,2.943184 z"
       id="path-1"
       style="fill:#ff0000;fill-opacity:1;fill-rule:nonzero;stroke:none" />
  </g>
</svg>
